<svg width="18" height="842" viewBox="0 0 18 842" fill="none" xmlns="http://www.w3.org/2000/svg">
<path d="M-0.100049 285.8C-0.100049 285.4 -0.100049 285.1 -0.100049 284.7C0.0999512 284.8 0.199951 284.9 0.399951 285C2.99995 282.4 5.59995 279.8 8.09995 277.3C6.89995 276.1 5.79995 275 4.59995 273.8C3.29995 275.1 1.79995 276.6 0.399951 278C0.199951 277.9 0.0999512 277.8 -0.100049 277.7C-0.100049 277.3 -0.100049 276.9 -0.100049 276.5C0.0999512 276.6 0.199951 276.8 0.399951 276.8C1.59995 275.6 2.79995 274.4 3.99995 273.2C2.89995 272.1 1.69995 270.9 0.499951 269.7C0.299951 269.9 0.199951 270 -4.88162e-05 270.2C-4.88162e-05 269.5 -4.88162e-05 268.8 -4.88162e-05 268.1C0.0999512 268.2 0.199951 268.2 0.399951 268.3C0.399951 268 0.399951 267.9 0.399951 267.7C0.399951 265.7 0.399951 263.6 0.399951 261.6C0.399951 261.3 0.299951 261.1 -4.88162e-05 260.9C-4.88162e-05 260.5 -4.88162e-05 260.2 -4.88162e-05 259.8C0.0999512 259.8 0.199951 259.9 0.399951 260C0.399951 259.8 0.399951 259.6 0.399951 259.5C0.399951 257.5 0.399951 255.5 0.399951 253.5C0.399951 253.2 0.399951 252.9 -4.88162e-05 252.7C-4.88162e-05 252.3 -4.88162e-05 252 -4.88162e-05 251.6C0.0999512 251.6 0.199951 251.7 0.399951 251.8C0.399951 251.6 0.399951 251.4 0.399951 251.2C0.399951 249.2 0.399951 247.2 0.399951 245.2C0.399951 244.9 0.399951 244.5 -4.88162e-05 244.4C-4.88162e-05 244 -4.88162e-05 243.7 -4.88162e-05 243.3C0.0999512 243.3 0.199951 243.4 0.299951 243.5C0.299951 241.3 0.299951 239.1 0.299951 236.9C0.0999512 236.9 0.0999512 237 -4.88162e-05 237.1C-4.88162e-05 236.4 -4.88162e-05 235.8 -4.88162e-05 235.1C0.199951 235.3 0.399951 235.5 0.599951 235.6C1.79995 234.4 2.99995 233.2 4.09995 232.1C2.79995 230.8 1.39995 229.4 0.0999512 227.9C0.0999512 227.5 0.0999512 227.2 0.0999512 226.8C0.199951 226.9 0.399951 227 0.499951 227.1C1.79995 228.4 3.19995 229.8 4.49995 231.1C4.59995 231.2 4.69995 231.3 4.79995 231.4C5.99995 230.2 7.19995 229 8.39995 227.8C8.09995 227.5 7.69995 227.2 7.39995 226.9C4.99995 224.5 2.49995 222 0.0999512 219.6C0.0999512 219.2 0.0999512 218.9 0.0999512 218.5C0.299951 218.6 0.399951 218.7 0.499951 218.8C3.19995 221.5 5.89995 224.2 8.69995 227C8.79995 227.1 8.89995 227.2 8.99995 227.3C10.2 226.1 11.4 224.9 12.6 223.8C8.39995 219.6 4.29995 215.5 0.0999512 211.3C0.0999512 210.9 0.0999512 210.6 0.0999512 210.2C0.299951 210.3 0.399951 210.4 0.599951 210.6C4.69995 214.7 8.79995 218.8 12.9 222.9C13 223 13.2 223.1 13.2 223.2C14.4 222 15.6 220.8 16.7 219.7C11.4 214.4 5.99995 209 0.599951 203.6C0.499951 203.7 0.299951 203.8 0.199951 203.9C0.199951 203.5 0.199951 203.2 0.199951 202.8C0.199951 202.7 0.299951 202.5 0.299951 202.4C0.299951 200.2 0.299951 198 0.299951 195.9C0.299951 195.8 0.299951 195.6 0.199951 195.5C0.199951 194.8 0.199951 194.1 0.199951 193.4C0.399951 193.6 0.499951 193.7 0.699951 193.8C4.69995 189.8 8.69995 185.8 12.6 181.9C11.5 180.7 10.3 179.6 9.09995 178.4C6.39995 181.1 3.59995 183.9 0.799951 186.8C0.599951 186.6 0.499951 186.5 0.299951 186.4C0.299951 186 0.299951 185.7 0.299951 185.3C0.499951 185.4 0.599951 185.5 0.799951 185.6C3.39995 183 5.99995 180.4 8.49995 177.9C7.29995 176.7 6.19995 175.6 4.99995 174.4C3.69995 175.7 2.19995 177.2 0.799951 178.6C0.599951 178.5 0.499951 178.4 0.299951 178.3C0.299951 177.9 0.299951 177.5 0.299951 177.1C0.499951 177.2 0.599951 177.4 0.799951 177.4C1.99995 176.2 3.19995 175 4.39995 173.8C3.29995 172.7 2.09995 171.5 0.899951 170.3C0.699951 170.5 0.599951 170.6 0.399951 170.8C0.399951 170.1 0.399951 169.4 0.399951 168.7C0.499951 168.8 0.599951 168.8 0.799951 168.9C0.799951 168.6 0.799951 168.5 0.799951 168.3C0.799951 166.3 0.799951 164.2 0.799951 162.2C0.799951 161.9 0.699951 161.7 0.399951 161.5C0.399951 161.1 0.399951 160.8 0.399951 160.4C0.499951 160.4 0.599951 160.5 0.799951 160.6C0.799951 160.4 0.799951 160.2 0.799951 160.1C0.799951 158.1 0.799951 156.1 0.799951 154.1C0.799951 153.8 0.799951 153.5 0.399951 153.3C0.399951 152.9 0.399951 152.6 0.399951 152.2C0.499951 152.2 0.599951 152.3 0.799951 152.4C0.799951 152.2 0.799951 152 0.799951 151.8C0.799951 149.8 0.799951 147.8 0.799951 145.8C0.799951 145.5 0.799951 145.1 0.399951 145C0.399951 144.6 0.399951 144.3 0.399951 143.9C0.499951 143.9 0.599951 144 0.699951 144.1C0.699951 141.9 0.699951 139.7 0.699951 137.5C0.499951 137.5 0.499951 137.6 0.399951 137.7C0.399951 137 0.399951 136.4 0.399951 135.7C0.599951 135.9 0.799951 136.1 0.999951 136.2C2.19995 135 3.39995 133.8 4.49995 132.7C3.19995 131.4 1.79995 130 0.499951 128.5C0.499951 128.1 0.499951 127.8 0.499951 127.4C0.599951 127.5 0.799951 127.6 0.899951 127.7C2.19995 129 3.59995 130.4 4.89995 131.7C4.99995 131.8 5.09995 131.9 5.19995 132C6.39995 130.8 7.59995 129.6 8.79995 128.4C8.49995 128.1 8.09995 127.8 7.79995 127.5C5.39995 125.1 2.89995 122.6 0.499951 120.2C0.499951 119.8 0.499951 119.5 0.499951 119.1C0.699951 119.2 0.799951 119.3 0.899951 119.4C3.59995 122.1 6.29995 124.8 9.09995 127.6C9.19995 127.7 9.29995 127.8 9.39995 127.9C10.6 126.7 11.8 125.5 13 124.3C8.79995 120.1 4.59995 115.9 0.399951 111.8C0.399951 111.4 0.399951 111.1 0.399951 110.7C0.599951 110.8 0.699951 110.9 0.899951 111.1C4.99995 115.2 9.09995 119.3 13.2 123.4C13.3 123.5 13.5 123.6 13.5 123.7C14.7 122.5 15.9 121.3 17 120.2C11.6 114.9 6.29995 109.5 0.899951 104.2C0.799951 104.3 0.599951 104.4 0.499951 104.5C0.499951 104.1 0.499951 103.8 0.499951 103.4C0.499951 103.3 0.599951 103.1 0.599951 103C0.599951 100.8 0.599951 98.6 0.599951 96.5C0.599951 96.4 0.599951 96.2 0.499951 96.1C0.499951 95.4 0.499951 94.7 0.499951 94C0.699951 94.2 0.799951 94.3 0.999951 94.4C4.99995 90.4 8.99995 86.4 12.9 82.5C11.8 81.3 10.6 80.2 9.39995 79C6.69995 81.7 3.89995 84.5 1.09995 87.4C0.899951 87.2 0.799951 87.1 0.599951 87C0.599951 86.6 0.599951 86.3 0.599951 85.9C0.799951 86 0.899951 86.1 1.09995 86.2C3.69995 83.6 6.29995 81 8.79995 78.5C7.59995 77.3 6.49995 76.2 5.29995 75C3.99995 76.3 2.49995 77.8 1.09995 79.2C0.899951 79.1 0.799951 79 0.599951 78.9C0.599951 78.5 0.599951 78.1 0.599951 77.7C0.799951 77.8 0.899951 78 1.09995 78C2.29995 76.8 3.49995 75.6 4.69995 74.4C3.59995 73.3 2.39995 72.1 1.19995 70.9C0.999951 71.1 0.899951 71.2 0.699951 71.4C0.699951 70.7 0.699951 70 0.699951 69.3C0.799951 69.4 0.899951 69.4 1.09995 69.5C1.09995 69.2 1.09995 69.1 1.09995 68.9C1.09995 66.9 1.09995 64.8 1.09995 62.8C1.09995 62.5 0.999951 62.3 0.699951 62.1C0.699951 61.7 0.699951 61.4 0.699951 61C0.799951 61 0.899951 61.1001 1.09995 61.2001C1.09995 61.0001 1.09995 60.8001 1.09995 60.7001C1.09995 58.7001 1.09995 56.7001 1.09995 54.7001C1.09995 54.4001 1.09995 54.1001 0.699951 53.9001C0.699951 53.5001 0.699951 53.2 0.699951 52.8C0.799951 52.8 0.899951 52.9 1.09995 53C1.09995 52.8 1.09995 52.6001 1.09995 52.4001C1.09995 50.4001 1.09995 48.4001 1.09995 46.4001C1.09995 46.1001 1.09995 45.7 0.699951 45.6C0.699951 45.2 0.699951 44.9 0.699951 44.5C0.799951 44.5 0.899951 44.6001 0.999951 44.7001C0.999951 42.5001 0.999951 40.3 0.999951 38.1C0.799951 38.1 0.799951 38.2 0.699951 38.3C0.699951 37.6 0.699951 37 0.699951 36.3C0.899951 36.5 1.09995 36.7 1.29995 36.8C2.49995 35.6 3.69995 34.4 4.79995 33.3C3.49995 32 2.09995 30.6 0.799951 29.1C0.799951 28.7 0.799951 28.4 0.799951 28C0.899951 28.1 1.09995 28.2 1.19995 28.3C2.49995 29.6 3.89995 31 5.19995 32.3C5.29995 32.4 5.39995 32.5 5.49995 32.6C6.69995 31.4 7.89995 30.2 9.09995 29C8.79995 28.7 8.39995 28.4 8.09995 28.1C5.59995 25.6 3.19995 23.2001 0.799951 20.7001C0.799951 20.3001 0.799951 20 0.799951 19.6C-4.88162e-05 18.9 0.199951 19 0.299951 19.1C2.99995 21.8001 5.69995 24.5001 8.49995 27.2001C8.59995 27.3001 8.69995 27.4 8.79995 27.5C9.99995 26.3 11.2 25.1 12.4 24C8.19995 19.8 3.99995 15.7 -0.100049 11.6C-0.100049 11.2 -0.100049 10.9 -0.100049 10.5C0.0999512 10.6 0.199951 10.7 0.399951 10.9C4.49995 15 8.59995 19.1001 12.7 23.2001C12.8 23.3001 13 23.4 13 23.5C14.2 22.3 15.4 21.1 16.5 20C11 14.6 5.69995 9.20005 0.299951 3.90005C0.199951 3.90005 -4.88088e-05 4.00005 -0.100049 4.20005C-0.100049 3.10005 -0.100049 2.10005 -0.100049 1.00005C0.199951 1.00005 0.499951 1.00005 0.799951 1.00005C0.799951 1.50005 0.799951 2.10005 0.799951 2.60005C0.799951 2.80005 0.899951 3.10005 1.09995 3.30005C1.89995 4.20005 2.89995 5.10005 3.79995 6.00005C3.79995 6.00005 3.89995 6.10005 4.09995 6.20005C4.09995 4.40005 4.09995 2.70005 4.09995 1.00005C4.39995 1.00005 4.59995 1.00005 4.89995 1.00005C4.89995 2.90005 4.89995 4.90005 4.89995 6.80005C4.99995 7.00005 5.09995 7.20005 5.19995 7.40005C6.09995 8.30005 6.99995 9.20005 7.99995 10.1C8.09995 10.2 8.19995 10.2 8.29995 10.3C8.29995 9.00005 8.29995 7.80005 8.29995 6.70005C8.29995 4.80005 8.29995 2.90005 8.29995 1.00005C8.59995 1.00005 8.79995 1.00005 9.09995 1.00005C9.09995 4.40005 9.09995 7.70005 9.09995 11C9.09995 11.2 9.19995 11.4 9.29995 11.5C10.2 12.4 11.1 13.3 12 14.2C12.1 14.3 12.2 14.3 12.3 14.4C12.3 14.1 12.3 13.9 12.3 13.7C12.3 9.60005 12.3 5.50005 12.3 1.40005C12.3 1.20005 12.3 1.00005 12.3 0.800049C12.5 0.800049 12.8 0.800049 13 0.800049C13 1.00005 13 1.20005 13 1.50005C13 5.90005 13 10.3 13 14.8C13 15 13 15.3 13.2 15.5C14.3 16.6 15.4 17.7 16.5 18.8C16.5 19.5 16.5 20.2 16.5 20.9C15.5 21.9 14.6 22.9 13.6 24C14.5 24.9 15.5 25.9 16.5 26.9C16.5 27.3 16.5 27.6 16.5 28C15.8 27.3 15.1 26.7 14.4 26C13.9 25.5 13.4 25 13 24.6C11.8 25.8001 10.6 27 9.49995 28.1C9.49995 28.1 9.59995 28.2 9.69995 28.3C11.9 30.5 14.0999 32.7001 16.2999 34.9001C16.3999 35.0001 16.5 35 16.6 35.1C16.6 35.5 16.6 35.9 16.6 36.3C16.5 36.2 16.3 36.1 16.2 36C13.9 33.7 11.6 31.4 9.29995 29.1C9.09995 28.9 9.09995 28.8001 8.99995 28.7001C7.69995 30.0001 6.59995 31.2 5.39995 32.3C5.39995 32.3 5.49995 32.4 5.59995 32.5C9.19995 36.1 12.7999 39.7001 16.2999 43.2001C16.3999 43.3001 16.5 43.4001 16.6 43.4001C16.6 43.8001 16.6 44.2 16.6 44.6C16.4 44.4 16.3 44.3001 16.2 44.2001C12.5 40.5001 8.89995 36.9001 5.19995 33.2001C5.09995 33.0001 4.99995 32.9 4.89995 32.8C3.69995 34 2.49995 35.2 1.39995 36.3C1.49995 36.4 1.59995 36.5 1.69995 36.6C5.39995 40.3 8.99995 43.9 12.7 47.6C14 48.9 15.4 50.3 16.7 51.6C16.7 52 16.7 52.3001 16.7 52.7001C16.6 52.6001 16.3999 52.5001 16.2999 52.4001C14.0999 50.2001 12 48.1001 9.79995 45.9001C9.69995 45.8001 9.59995 45.6001 9.59995 45.4001C9.59995 45.4001 9.49995 45.5 9.39995 45.6C9.39995 50.4 9.39995 55.1001 9.39995 59.9001C9.39995 59.9001 9.49995 59.9 9.49995 60C9.59995 59.9 9.69995 59.7 9.79995 59.6C12 57.4 14.1 55.3001 16.2 53.2001C16.3 53.1001 16.5 53.0001 16.6 52.9001C16.6 53.3001 16.6 53.6 16.6 54C16.4 54.2 16.3 54.3001 16.2 54.4001C13.7 56.9001 11.2 59.4001 8.69995 61.9001C6.29995 64.3001 3.99995 66.6 1.59995 69C1.49995 69.1 1.39995 69.3 1.29995 69.3C2.49995 70.5 3.69995 71.7 4.89995 72.9C4.99995 72.7 5.09995 72.6 5.19995 72.4C8.89995 68.7 12.5 65.0001 16.2 61.4001C16.3 61.3001 16.5 61.2 16.6 61.1C16.6 61.5 16.6 61.9 16.6 62.3C16.5 62.4 16.3999 62.5 16.2999 62.6C12.7999 66.1 9.19995 69.7 5.69995 73.2C5.59995 73.3 5.49995 73.4 5.39995 73.5C6.59995 74.7 7.79995 75.9 8.89995 77C8.99995 76.9 9.09995 76.8 9.29995 76.7C11.6 74.4 13.9 72.1 16.2 69.8C16.3 69.7 16.5 69.6 16.6 69.5C16.6 69.9 16.6 70.3 16.6 70.7C16.5 70.8 16.3999 70.9 16.2999 70.9C14.0999 73.1 11.9 75.3 9.69995 77.5C9.59995 77.6 9.49995 77.7 9.49995 77.7C10.7 78.9 11.9 80.1 13 81.2C13.8 80.4 14.8 79.4 15.7 78.5C16 78.2 16.2 78 16.5 77.8C16.5 78.2 16.5 78.5 16.5 78.9C15.5 79.9 14.5 80.9 13.6 81.8C14.6 82.8 15.6 83.8 16.5 84.8C16.5 85.2 16.5 85.5 16.5 85.9C16.4 85.8 16.2 85.7 16.1 85.6C15.2 84.7 14.3 83.8 13.4 82.9C13.3 82.8 13.2 82.7 13 82.6C13 82.9 13 83.1 13 83.3C13 89.2 13 95.1 13 101C13 105.5 13 110 13 114.6C13 114.8 13 115.1 13.2 115.3C14.3 116.4 15.4 117.5 16.5 118.6C16.5 119.3 16.5 120 16.5 120.7C15.5 121.7 14.6 122.7 13.6 123.8C14.5 124.7 15.5 125.7 16.5 126.7C16.5 127.1 16.5 127.4 16.5 127.8C15.8 127.1 15.1 126.5 14.4 125.8C13.9 125.3 13.4 124.8 13 124.4C11.8 125.6 10.6 126.8 9.49995 127.9C9.49995 127.9 9.59995 128 9.69995 128.1C11.9 130.3 14.0999 132.5 16.2999 134.7C16.3999 134.8 16.5 134.8 16.6 134.9C16.6 135.3 16.6 135.7 16.6 136.1C16.5 136 16.3 135.9 16.2 135.8C13.9 133.5 11.6 131.2 9.29995 128.9C9.09995 128.7 9.09995 128.6 8.99995 128.5C7.69995 129.8 6.59995 131 5.39995 132.1C5.39995 132.1 5.49995 132.2 5.59995 132.3C9.19995 135.9 12.7999 139.5 16.2999 143C16.3999 143.1 16.5 143.2 16.6 143.2C16.6 143.6 16.6 144 16.6 144.4C16.4 144.2 16.3 144.1 16.2 144C12.5 140.3 8.89995 136.7 5.19995 133C4.99995 132.8 4.89995 132.7 4.89995 132.7C3.69995 133.9 2.49995 135.1 1.39995 136.2C1.49995 136.3 1.59995 136.4 1.69995 136.5C5.39995 140.2 8.99995 143.8 12.7 147.5C14 148.8 15.4 150.2 16.7 151.5C16.7 151.9 16.7 152.2 16.7 152.6C16.6 152.5 16.3999 152.4 16.2999 152.3C14.0999 150.1 12 148 9.79995 145.8C9.69995 145.7 9.59995 145.5 9.59995 145.3C9.59995 145.3 9.49995 145.4 9.39995 145.5C9.39995 150.3 9.39995 155 9.39995 159.8H9.49995C9.59995 159.7 9.69995 159.6 9.79995 159.5C12 157.3 14.1 155.2 16.2 153.1C16.3 153 16.5 152.9 16.6 152.8C16.6 153.2 16.6 153.5 16.6 153.9C16.4 154.1 16.3 154.2 16.2 154.3C13.7 156.8 11.2 159.3 8.69995 161.8C6.29995 164.2 3.99995 166.5 1.59995 168.9C1.49995 169 1.39995 169.2 1.29995 169.2C2.49995 170.4 3.69995 171.6 4.89995 172.8C4.99995 172.6 5.09995 172.5 5.19995 172.3C8.89995 168.6 12.5 164.9 16.2 161.3C16.3 161.2 16.5 161.1 16.6 161C16.6 161.4 16.6 161.8 16.6 162.2C16.5 162.3 16.3999 162.4 16.2999 162.5C12.7999 166 9.19995 169.6 5.69995 173.1C5.59995 173.2 5.49995 173.3 5.39995 173.4C6.59995 174.6 7.79995 175.8 8.89995 176.9C8.99995 176.8 9.09995 176.7 9.29995 176.6C11.6 174.3 13.9 172 16.2 169.7C16.3 169.6 16.5 169.5 16.6 169.4C16.6 169.8 16.6 170.2 16.6 170.6C16.5 170.7 16.3999 170.8 16.2999 170.8C14.0999 173 11.9 175.2 9.69995 177.4C9.59995 177.5 9.49995 177.6 9.49995 177.6C10.7 178.8 11.9 180 13 181.1C13.8 180.3 14.8 179.3 15.7 178.4C16 178.1 16.2 177.9 16.5 177.7C16.5 178.1 16.5 178.4 16.5 178.8C15.5 179.8 14.5 180.8 13.6 181.7C14.6 182.7 15.6 183.7 16.5 184.7C16.5 185.1 16.5 185.4 16.5 185.8C16.4 185.7 16.2 185.6 16.1 185.5C15.2 184.6 14.3 183.7 13.4 182.8C13.3 182.7 13.2 182.6 13 182.5C13 182.8 13 183 13 183.2C13 189.1 13 195 13 200.9C13 205.4 13 209.9 13 214.5C13 214.7 13 215 13.2 215.2C14.3 216.3 15.4 217.4 16.5 218.5C16.5 219.2 16.5 219.9 16.5 220.6C15.5 221.6 14.6 222.6 13.6 223.7C14.5 224.6 15.5 225.6 16.5 226.6C16.5 227 16.5 227.3 16.5 227.7C15.8 227 15.1 226.4 14.4 225.7C13.9 225.2 13.4 224.7 13 224.3C11.8 225.5 10.6 226.7 9.49995 227.8C9.49995 227.8 9.59995 227.9 9.69995 228C11.9 230.2 14.0999 232.4 16.2999 234.6C16.3999 234.7 16.5 234.7 16.6 234.8C16.6 235.2 16.6 235.6 16.6 236C16.5 235.9 16.3 235.8 16.2 235.7C13.9 233.4 11.6 231.1 9.29995 228.8C9.09995 228.6 9.09995 228.5 8.99995 228.4C7.69995 229.7 6.59995 230.9 5.39995 232C5.39995 232 5.49995 232.1 5.59995 232.2C9.19995 235.8 12.7999 239.4 16.2999 242.9C16.3999 243 16.5 243.1 16.6 243.1C16.6 243.5 16.6 243.9 16.6 244.3C16.4 244.1 16.3 244 16.2 243.9C12.5 240.2 8.89995 236.6 5.19995 232.9C4.99995 232.7 4.89995 232.6 4.89995 232.6C3.69995 233.8 2.49995 235 1.39995 236.1C1.49995 236.2 1.59995 236.3 1.69995 236.4C5.39995 240.1 8.99995 243.7 12.7 247.4C14 248.7 15.4 250.1 16.7 251.4C16.7 251.8 16.7 252.1 16.7 252.5C16.6 252.4 16.3999 252.3 16.2999 252.2C14.0999 250 12 247.9 9.79995 245.7C9.69995 245.6 9.59995 245.4 9.59995 245.2C9.59995 245.2 9.49995 245.3 9.39995 245.4C9.39995 250.2 9.39995 254.9 9.39995 259.8C9.59995 259.6 9.69995 259.5 9.79995 259.4C12 257.2 14.1 255.1 16.2 253C16.3 252.9 16.5 252.8 16.6 252.7C16.6 253.1 16.6 253.4 16.6 253.8C16.4 254 16.3 254.1 16.2 254.2C13.7 256.7 11.2 259.2 8.69995 261.7C6.29995 264.1 3.99995 266.4 1.59995 268.8C1.49995 268.9 1.39995 269.1 1.29995 269.1C2.49995 270.3 3.69995 271.5 4.89995 272.7C4.99995 272.5 5.09995 272.4 5.19995 272.2C8.89995 268.5 12.5 264.8 16.2 261.2C16.3 261.1 16.5 261 16.6 260.9C16.6 261.3 16.6 261.7 16.6 262.1C16.5 262.2 16.3999 262.3 16.2999 262.4C12.7999 265.9 9.19995 269.5 5.69995 273C5.59995 273.1 5.49995 273.2 5.39995 273.3C6.59995 274.5 7.79995 275.7 8.89995 276.8C8.99995 276.7 9.09995 276.6 9.29995 276.5C11.6 274.2 13.9 271.9 16.2 269.6C16.3 269.5 16.5 269.4 16.6 269.3C16.6 269.7 16.6 270.1 16.6 270.5C16.5 270.6 16.3999 270.7 16.2999 270.7C14.0999 272.9 11.9 275.1 9.69995 277.3C9.59995 277.4 9.49995 277.5 9.49995 277.5C10.7 278.7 11.9 279.9 13 281C13.9 280.1 14.8 279.2 15.7 278.3C16 278 16.2 277.8 16.5 277.6C16.5 278 16.5 278.3 16.5 278.7C15.5 279.7 14.5 280.7 13.6 281.6C14.6 282.6 15.6 283.6 16.5 284.6C16.5 285 16.5 285.3 16.5 285.7C16.4 285.6 16.2 285.5 16.1 285.4C15.2 284.5 14.3 283.6 13.4 282.7C13.3 282.6 13.2 282.5 13 282.4C13 282.7 13 282.9 13 283.1C13 289 13 294.9 13 300.8C13 305.3 13 309.8 13 314.4C13 314.6 13 314.9 13.2 315.1C14.3 316.2 15.4 317.3 16.5 318.4C16.5 319.1 16.5 319.8 16.5 320.5C15.5 321.5 14.6 322.5 13.6 323.6C14.5 324.5 15.5 325.5 16.5 326.5C16.5 326.9 16.5 327.2 16.5 327.6C15.8 326.9 15.1 326.3 14.4 325.6C13.9 325.1 13.4 324.6 13 324.2C11.8 325.4 10.6 326.6 9.49995 327.7C9.49995 327.7 9.59995 327.8 9.69995 327.9C11.9 330.1 14.0999 332.3 16.2999 334.5C16.3999 334.6 16.5 334.6 16.6 334.7C16.6 335.1 16.6 335.5 16.6 335.9C16.5 335.8 16.3 335.7 16.2 335.6C13.9 333.3 11.6 331 9.29995 328.7C9.09995 328.5 9.09995 328.4 8.99995 328.3C7.69995 329.6 6.59995 330.8 5.39995 331.9C5.39995 331.9 5.49995 332 5.59995 332.1C9.19995 335.7 12.7999 339.3 16.2999 342.8C16.3999 342.9 16.5 343 16.6 343C16.6 343.4 16.6 343.8 16.6 344.2C16.4 344 16.3 343.9 16.2 343.8C12.5 340.1 8.89995 336.5 5.19995 332.8C4.99995 332.6 4.89995 332.5 4.89995 332.5C3.69995 333.7 2.49995 334.9 1.39995 336C1.49995 336.1 1.59995 336.2 1.69995 336.3C5.39995 340 8.99995 343.6 12.7 347.3C14 348.6 15.4 350 16.7 351.3C16.7 351.7 16.7 352 16.7 352.4C16.6 352.3 16.3999 352.2 16.2999 352.1C14.0999 349.9 12 347.8 9.79995 345.6C9.69995 345.5 9.59995 345.3 9.59995 345.1C9.59995 345.1 9.49995 345.2 9.39995 345.3C9.39995 350.1 9.39995 354.8 9.39995 359.6C9.39995 359.6 9.49995 359.6 9.49995 359.7C9.59995 359.6 9.69995 359.4 9.79995 359.3C12 357.1 14.1 355 16.2 352.9C16.3 352.8 16.5 352.7 16.6 352.6C16.6 353 16.6 353.3 16.6 353.7C16.4 353.9 16.3 354 16.2 354.1C13.7 356.6 11.2 359.1 8.69995 361.6C6.29995 364 3.99995 366.3 1.59995 368.7C1.49995 368.8 1.39995 369 1.29995 369C2.49995 370.2 3.69995 371.4 4.89995 372.6C4.99995 372.4 5.09995 372.3 5.19995 372.1C8.89995 368.4 12.5 364.7 16.2 361.1C16.3 361 16.5 360.9 16.6 360.8C16.6 361.2 16.6 361.6 16.6 362C16.5 362.1 16.3999 362.2 16.2999 362.3C12.7999 365.8 9.19995 369.4 5.69995 372.9C5.59995 373 5.49995 373.1 5.39995 373.2C6.59995 374.4 7.79995 375.6 8.89995 376.7C8.99995 376.6 9.09995 376.5 9.29995 376.4C11.6 374.1 13.9 371.8 16.2 369.5C16.3 369.4 16.5 369.3 16.6 369.2C16.6 369.6 16.6 370 16.6 370.4C16.5 370.5 16.3999 370.6 16.2999 370.6C14.0999 372.8 11.9 375 9.69995 377.2C9.59995 377.3 9.49995 377.4 9.49995 377.4C10.7 378.6 11.9 379.8 13 380.9C13.9 380 14.8 379.1 15.7 378.2C16 377.9 16.2 377.7 16.5 377.5C16.5 377.9 16.5 378.2 16.5 378.6C15.5 379.6 14.5 380.6 13.6 381.5C14.6 382.5 15.6 383.5 16.5 384.5C16.5 384.9 16.5 385.2 16.5 385.6C16.4 385.5 16.2 385.4 16.1 385.3C15.2 384.4 14.3 383.5 13.4 382.6C13.3 382.5 13.2 382.4 13 382.3C13 382.6 13 382.8 13 383C13 388.9 13 394.8 13 400.7C13 405.2 13 409.7 13 414.3C13 414.5 13 414.8 13.2 415C14.3 416.1 15.4 417.2 16.5 418.3C16.5 419 16.5 419.7 16.5 420.4C15.5 421.4 14.6 422.4 13.6 423.5C14.5 424.4 15.5 425.4 16.5 426.4C16.5 426.8 16.5 427.1 16.5 427.5C15.8 426.8 15.1 426.2 14.4 425.5C13.9 425 13.4 424.5 13 424.1C11.8 425.3 10.6 426.5 9.49995 427.6C9.49995 427.6 9.59995 427.7 9.69995 427.8C11.9 430 14.0999 432.2 16.2999 434.4C16.3999 434.5 16.5 434.5 16.6 434.6C16.6 435 16.6 435.4 16.6 435.8C16.5 435.7 16.3 435.6 16.2 435.5C13.9 433.2 11.6 430.9 9.29995 428.6C9.09995 428.4 9.09995 428.3 8.99995 428.2C7.69995 429.5 6.59995 430.7 5.39995 431.8C5.39995 431.8 5.49995 431.9 5.59995 432C9.19995 435.6 12.7999 439.2 16.2999 442.7C16.3999 442.8 16.5 442.9 16.6 442.9C16.6 443.3 16.6 443.7 16.6 444.1C16.4 443.9 16.3 443.8 16.2 443.7C12.5 440 8.89995 436.4 5.19995 432.7C4.99995 432.5 4.99995 432.4 4.89995 432.3C3.59995 433.6 2.49995 434.7 1.19995 436C1.29995 436.1 1.39995 436.2 1.49995 436.3C4.09995 438.9 6.69995 441.5 9.19995 444C9.29995 444.1 9.39995 444.3 9.49995 444.4C9.09995 444.4 8.69995 444.4 8.29995 444.4C8.19995 444.3 8.09995 444.1 7.99995 444C7.19995 443.2 6.39995 442.4 5.59995 441.6C5.49995 441.4 5.39995 441.3 5.29995 441.1C5.19995 441.1 5.09995 441.2 5.09995 441.3C5.09995 442.3 5.09995 443.4 5.09995 444.5C4.79995 444.5 4.59995 444.5 4.29995 444.5C4.29995 443.2 4.29995 442 4.29995 440.7C4.29995 440.5 4.19995 440.2 4.09995 440.1C3.09995 439.1 2.19995 438.1 1.19995 437.2C1.09995 437.1 1.09995 437.1 0.899951 437C0.899951 437.3 0.899951 437.4 0.899951 437.6C0.899951 439.9 0.899951 442.2 0.899951 444.5C0.499951 444.5 0.0999512 444.5 -0.300049 444.5C-0.300049 444.1 -0.300049 443.7 -0.300049 443.2C-0.200049 443.2 -0.100049 443.3 -4.88162e-05 443.4C-4.88162e-05 441.2 -4.88162e-05 439 -4.88162e-05 436.8C-0.200049 436.8 -0.200049 436.9 -0.300049 437C-0.300049 436.3 -0.300049 435.7 -0.300049 435C-0.100049 435.2 0.0999512 435.4 0.299951 435.5C1.49995 434.3 2.69995 433.1 3.79995 432C2.49995 430.7 1.09995 429.3 -0.200049 427.8C-0.200049 427.4 -0.200049 427.1 -0.200049 426.7C-0.100049 426.8 0.0999512 426.9 0.199951 427C1.49995 428.3 2.89995 429.7 4.19995 431C4.29995 431.1 4.39995 431.2 4.49995 431.3C5.69995 430.1 6.89995 428.9 8.09995 427.7C7.79995 427.4 7.39995 427.1 7.09995 426.8C4.69995 424.4 2.19995 421.9 -0.200049 419.5C-0.200049 419.1 -0.200049 418.8 -0.200049 418.4C-4.88162e-05 418.5 0.0999512 418.6 0.199951 418.7C2.89995 421.4 5.59995 424.1 8.39995 426.9C8.49995 427 8.59995 427.1 8.69995 427.2C9.89995 426 11.1 424.8 12.3 423.6C8.19995 419.5 3.99995 415.4 -0.100049 411.2C-0.100049 410.8 -0.100049 410.5 -0.100049 410.1C0.0999512 410.2 0.199951 410.3 0.399951 410.5C4.49995 414.6 8.59995 418.7 12.7 422.8C12.8 422.9 13 423 13 423.1C14.2 421.9 15.4 420.7 16.5 419.6C11.2 414.3 5.79995 408.9 0.399951 403.5C0.299951 403.6 0.0999512 403.7 -4.88162e-05 403.8C-4.88162e-05 403.4 -4.88162e-05 403.1 -4.88162e-05 402.7C-4.88162e-05 402.6 0.0999512 402.4 0.0999512 402.3C0.0999512 400.1 0.0999512 397.9 0.0999512 395.8C0.0999512 395.7 0.0999512 395.5 -4.88162e-05 395.4C-4.88162e-05 394.7 -4.88162e-05 394 -4.88162e-05 393.3C0.199951 393.5 0.299951 393.6 0.499951 393.7C4.49995 389.7 8.49995 385.7 12.4 381.8C11.3 380.6 10.1 379.5 8.89995 378.3C6.19995 381 3.39995 383.8 0.599951 386.7C0.399951 386.5 0.299951 386.4 0.0999512 386.3C0.0999512 385.9 0.0999512 385.6 0.0999512 385.2C0.299951 385.3 0.399951 385.4 0.599951 385.5C3.19995 382.9 5.79995 380.3 8.29995 377.8C7.09995 376.6 5.99995 375.5 4.79995 374.3C3.49995 375.6 1.99995 377.1 0.599951 378.5C0.399951 378.4 0.299951 378.3 0.0999512 378.2C0.0999512 377.8 0.0999512 377.4 0.0999512 377C0.299951 377.1 0.399951 377.3 0.599951 377.3C1.79995 376.1 2.99995 374.9 4.19995 373.7C3.09995 372.6 1.89995 371.4 0.699951 370.2C0.499951 370.4 0.399951 370.5 0.199951 370.7C0.199951 370 0.199951 369.3 0.199951 368.6C0.299951 368.7 0.399951 368.7 0.599951 368.8C0.599951 368.5 0.599951 368.4 0.599951 368.2C0.599951 366.2 0.599951 364.1 0.599951 362.1C0.599951 361.8 0.499951 361.6 0.199951 361.4C0.199951 361 0.199951 360.7 0.199951 360.3C0.299951 360.3 0.399951 360.4 0.599951 360.5C0.599951 360.3 0.599951 360.1 0.599951 360C0.599951 358 0.599951 356 0.599951 354C0.599951 353.7 0.599951 353.4 0.199951 353.2C0.199951 352.8 0.199951 352.5 0.199951 352.1C0.299951 352.1 0.399951 352.2 0.599951 352.3C0.599951 352.1 0.599951 351.9 0.599951 351.7C0.599951 349.7 0.599951 347.7 0.599951 345.7C0.599951 345.4 0.599951 345 0.199951 344.9C0.199951 344.5 0.199951 344.2 0.199951 343.8C0.299951 343.8 0.399951 343.9 0.499951 344C0.499951 341.8 0.499951 339.6 0.499951 337.4C0.299951 337.4 0.299951 337.5 0.199951 337.6C0.199951 336.9 0.199951 336.3 0.199951 335.6C0.399951 335.8 0.599951 336 0.799951 336.1C1.99995 334.9 3.19995 333.7 4.29995 332.6C2.99995 331.3 1.59995 329.9 0.299951 328.4C0.299951 328 0.299951 327.7 0.299951 327.3C0.399951 327.4 0.599951 327.5 0.699951 327.6C1.99995 328.9 3.39995 330.3 4.69995 331.6C4.79995 331.7 4.89995 331.8 4.99995 331.9C6.19995 330.7 7.39995 329.5 8.59995 328.3C8.29995 328 7.89995 327.7 7.59995 327.4C5.19995 325 2.69995 322.5 0.299951 320.1C0.299951 319.7 0.299951 319.4 0.299951 319C0.499951 319.1 0.599951 319.2 0.699951 319.3C3.39995 322 6.09995 324.7 8.89995 327.5C8.99995 327.6 9.09995 327.7 9.19995 327.8C10.4 326.6 11.6 325.4 12.8 324.3C7.99995 320.3 3.79995 316.1 -0.300049 312C-0.300049 311.6 -0.300049 311.3 -0.300049 310.9C-0.100049 311 -4.88311e-05 311.1 0.199951 311.3C4.29995 315.4 8.39995 319.5 12.5 323.6C12.6 323.7 12.8 323.8 12.8 323.9C14 322.7 15.1999 321.5 16.2999 320.4C10.9999 315 5.59995 309.7 0.199951 304.3C0.0999512 304.4 -0.100049 304.5 -0.200049 304.6C-0.200049 304.2 -0.200049 303.9 -0.200049 303.5C-0.200049 303.4 -0.100049 303.2 -0.100049 303.1C-0.100049 300.9 -0.100049 298.7 -0.100049 296.6C-0.100049 296.5 -0.100049 296.3 -0.200049 296.2C-0.200049 295.5 -0.200049 294.8 -0.200049 294.1C-4.88162e-05 294.3 0.0999512 294.4 0.299951 294.5C4.29995 290.5 8.29995 286.5 12.2 282.6C11 281.4 9.89995 280.3 8.69995 279.1C5.99995 281.8 3.19995 284.6 0.399951 287.5C0.199951 286.1 -4.88088e-05 286 -0.100049 285.8ZM1.09995 367.8C1.19995 367.8 1.19995 367.8 1.29995 367.7C2.29995 366.7 3.29995 365.7 4.29995 364.7C4.39995 364.6 4.49995 364.4 4.49995 364.2C4.49995 356.3 4.49995 348.4 4.49995 340.4C4.49995 340.2 4.39995 340 4.29995 339.9C3.29995 338.9 2.29995 337.9 1.29995 336.9C1.29995 336.9 1.19995 336.9 1.09995 336.8C1.09995 347.2 1.09995 357.5 1.09995 367.8ZM1.09995 37.4001C1.09995 47.8001 1.09995 58.1 1.09995 68.5C1.19995 68.5 1.29995 68.4 1.29995 68.4C2.29995 67.4 3.29995 66.4 4.29995 65.4C4.39995 65.3 4.49995 65.1 4.49995 64.9C4.49995 57 4.49995 49.1001 4.49995 41.2001C4.49995 41.0001 4.49995 40.9001 4.39995 40.7001C3.29995 39.6001 2.29995 38.5001 1.09995 37.4001ZM1.09995 268C1.19995 268 1.29995 267.9 1.29995 267.9C2.29995 266.9 3.29995 265.9 4.29995 264.9C4.39995 264.8 4.49995 264.6 4.49995 264.4C4.49995 256.5 4.49995 248.6 4.49995 240.7C4.49995 240.5 4.39995 240.2 4.19995 240C3.29995 239 2.39995 238.1 1.39995 237.2C1.29995 237.1 1.19995 237 1.09995 237C1.09995 247.4 1.09995 257.7 1.09995 268ZM1.09995 137.2C1.09995 147.6 1.09995 157.9 1.09995 168.3C1.19995 168.3 1.19995 168.3 1.29995 168.2C2.29995 167.2 3.29995 166.2 4.39995 165.1C4.49995 165 4.59995 164.8 4.59995 164.6C4.59995 156.7 4.59995 148.8 4.59995 140.9C4.59995 140.7 4.59995 140.6 4.49995 140.4C3.29995 139.4 2.29995 138.3 1.09995 137.2ZM12.4 382.4C11.4 383.4 10.4 384.4 9.39995 385.4C9.19995 385.6 9.09995 385.9 9.09995 386.1C9.09995 394.1 9.09995 402 9.09995 410C9.09995 410.2 9.19995 410.5 9.39995 410.7C10.3 411.6 11.2 412.5 12.1 413.4C12.2 413.5 12.3 413.6 12.4 413.7C12.4 403.2 12.4 392.9 12.4 382.4ZM12.4 114.4C12.4 103.9 12.4 93.6 12.4 83.1C11.4 84.1 10.5 85 9.49995 86C9.19995 86.3 9.09995 86.6 9.09995 87C9.09995 94.7 9.09995 102.5 9.09995 110.2C9.09995 110.9 9.29995 111.4 9.79995 111.9C10.7 112.6 11.5 113.4 12.4 114.4ZM12.3 214.2C12.3 203.7 12.3 193.4 12.3 182.9C11.3 183.9 10.4 184.8 9.39995 185.8C9.09995 186.1 8.99995 186.4 8.99995 186.8C8.99995 194.1 8.99995 201.5 8.99995 208.8C8.99995 209.5 8.79995 210.3 9.09995 210.9C9.39995 211.5 9.99995 211.9 10.5 212.4C11.2 212.9 11.7 213.5 12.3 214.2ZM12.4 282.6C11.4 283.6 10.6 284.5 9.59995 285.4C9.19995 285.7 9.09995 286.1 9.09995 286.6C9.09995 288.5 9.09995 290.5 9.09995 292.4C9.09995 298.3 9.09995 304.2 9.09995 310C9.09995 310.4 9.19995 310.7 9.49995 310.9C10.2 311.6 11 312.4 11.7 313.1C11.9 313.3 12.1 313.6 12.3 313.8L12.4 313.7C12.4 303.4 12.4 293.1 12.4 282.6ZM8.09995 210L8.19995 209.9C8.19995 202.3 8.19995 194.7 8.19995 187.1C8.09995 187.1 8.09995 187.1 7.99995 187.2C6.99995 188.2 5.99995 189.2 5.09995 190.1C4.99995 190.2 4.99995 190.4 4.99995 190.6C4.99995 195.8 4.99995 201.1 4.99995 206.3C4.99995 206.5 5.09995 206.8 5.29995 207C5.99995 207.8 6.79995 208.5 7.49995 209.2C7.69995 209.5 7.89995 209.7 8.09995 210ZM8.19995 110.2C8.19995 102.5 8.19995 94.9 8.19995 87.2C7.99995 87.4 7.89995 87.4 7.79995 87.5C6.99995 88.4 6.29995 89.2 5.39995 90C5.09995 90.3 4.89995 90.7 4.89995 91.1C4.89995 96 4.89995 100.8 4.89995 105.6C4.89995 106.6 5.09995 107.3 5.89995 107.9C6.69995 108.6 7.39995 109.4 8.19995 110.2ZM8.09995 309.8C8.09995 309.8 8.19995 309.7 8.29995 309.7C8.29995 302.1 8.29995 294.5 8.29995 286.9C8.19995 286.9 8.19995 286.9 8.09995 287C7.09995 288 6.09995 289 5.19995 289.9C4.99995 290 4.99995 290.2 4.99995 290.4C4.99995 295.7 4.99995 300.9 4.99995 306.2C4.99995 306.4 5.09995 306.6 5.29995 306.8C5.89995 307.5 6.49995 308 7.09995 308.7C7.39995 309 7.79995 309.4 8.09995 309.8ZM8.19995 386.6C8.09995 386.6 8.09995 386.6 7.99995 386.7C6.99995 387.7 5.99995 388.7 5.09995 389.6C4.99995 389.8 4.99995 390 4.99995 390.2C4.99995 395.4 4.99995 400.7 4.99995 405.9C4.99995 406.1 5.09995 406.4 5.29995 406.6C5.99995 407.4 6.79995 408.1 7.49995 408.8C7.69995 409 7.89995 409.3 8.19995 409.6L8.29995 409.5C8.19995 401.9 8.19995 394.3 8.19995 386.6ZM5.39995 241.2C5.39995 248.8 5.39995 256.3 5.39995 263.9C6.39995 262.9 7.39995 261.9 8.39995 260.9C8.49995 260.8 8.59995 260.6 8.59995 260.4C8.59995 255.2 8.59995 250 8.59995 244.8C8.59995 244.6 8.59995 244.5 8.39995 244.3C7.39995 243.3 6.49995 242.3 5.39995 241.2ZM5.39995 141.4C5.39995 149 5.39995 156.5 5.39995 164C6.39995 163 7.39995 162 8.39995 161C8.49995 160.9 8.59995 160.7 8.59995 160.5C8.59995 155.3 8.59995 150.1 8.59995 144.9C8.59995 144.7 8.59995 144.6 8.39995 144.4C7.39995 143.5 6.39995 142.5 5.39995 141.4ZM5.29995 363.6C5.39995 363.5 5.49995 363.5 5.49995 363.4C6.39995 362.5 7.39995 361.6 8.29995 360.6C8.39995 360.5 8.49995 360.2 8.49995 360C8.49995 354.8 8.49995 349.7 8.49995 344.5C8.49995 344.3 8.39995 344 8.19995 343.8C7.39995 342.9 6.49995 342.1 5.59995 341.2C5.49995 341.1 5.39995 341 5.29995 341C5.29995 348.6 5.29995 356 5.29995 363.6ZM5.39995 64.3001C6.49995 63.2001 7.49995 62.3 8.39995 61.3C8.49995 61.2 8.59995 61 8.59995 60.8C8.59995 55.6 8.59995 50.4 8.59995 45.3C8.59995 45.1 8.49995 44.8 8.29995 44.6C7.59995 43.9 6.89995 43.2001 6.09995 42.4001C5.89995 42.2001 5.69995 41.9001 5.49995 41.7001L5.39995 41.8C5.39995 49.2 5.39995 56.7001 5.39995 64.3001ZM4.09995 291C3.89995 291.2 3.79995 291.2 3.79995 291.3C2.89995 292.2 1.99995 293 1.19995 294C0.999951 294.2 0.899951 294.5 0.899951 294.7C0.899951 297.2 0.899951 299.6 0.899951 302.1C0.899951 302.3 0.999951 302.6 1.19995 302.8C1.99995 303.7 2.99995 304.6 3.79995 305.5C3.89995 305.6 3.99995 305.7 4.09995 305.8C4.09995 300.7 4.09995 295.9 4.09995 291ZM4.09995 205.8C4.09995 200.9 4.09995 196.1 4.09995 191.2C3.99995 191.3 3.89995 191.3 3.89995 191.4C2.89995 192.4 1.99995 193.3 0.999951 194.3C0.899951 194.4 0.799951 194.6 0.799951 194.8C0.799951 197.3 0.799951 199.8 0.799951 202.2C0.799951 202.4 0.899951 202.7 1.09995 202.8C1.89995 203.7 2.79995 204.5 3.69995 205.4C3.79995 205.5 3.89995 205.6 4.09995 205.8ZM4.09995 91.4C3.99995 91.4 3.89995 91.5 3.89995 91.5C2.89995 92.5 1.89995 93.5 0.999951 94.4C0.899951 94.5 0.799951 94.7 0.799951 94.9C0.799951 97.4 0.799951 99.8 0.799951 102.3C0.799951 102.5 0.899951 102.8 1.09995 103C1.99995 103.9 2.89995 104.8 3.79995 105.7C3.89995 105.8 3.99995 105.9 4.09995 105.9C4.09995 101.1 4.09995 96.3 4.09995 91.4ZM4.09995 405.4C4.09995 400.5 4.09995 395.7 4.09995 390.8C3.99995 390.9 3.89995 390.9 3.89995 391C2.89995 392 1.99995 392.9 0.999951 393.9C0.899951 394 0.799951 394.2 0.799951 394.4C0.799951 396.9 0.799951 399.4 0.799951 401.8C0.799951 402 0.899951 402.3 1.09995 402.4C1.89995 403.3 2.79995 404.1 3.69995 405C3.79995 405.1 3.89995 405.2 4.09995 405.4Z" fill="#FBA410"/>
<path d="M-0.100098 685.1C-0.100098 684.7 -0.100098 684.4 -0.100098 684C0.0999023 684.1 0.199902 684.2 0.399902 684.3C2.9999 681.7 5.5999 679.1 8.0999 676.6C6.8999 675.4 5.7999 674.3 4.5999 673.1C3.2999 674.4 1.7999 675.9 0.399902 677.3C0.199902 677.2 0.0999023 677.1 -0.100098 677C-0.100098 676.6 -0.100098 676.2 -0.100098 675.8C0.0999023 675.9 0.199902 676.1 0.399902 676.1C1.5999 674.9 2.7999 673.7 3.9999 672.5C2.8999 671.4 1.6999 670.2 0.499902 669C0.299902 669.2 0.199902 669.3 -9.76548e-05 669.5C-9.76548e-05 668.8 -9.76548e-05 668.1 -9.76548e-05 667.4C0.0999023 667.5 0.199902 667.5 0.399902 667.6C0.399902 667.3 0.399902 667.2 0.399902 667C0.399902 665 0.399902 662.9 0.399902 660.9C0.399902 660.6 0.299902 660.4 -9.76548e-05 660.2C-9.76548e-05 659.8 -9.76548e-05 659.5 -9.76548e-05 659.1C0.0999023 659.1 0.199902 659.2 0.399902 659.3C0.399902 659.1 0.399902 658.9 0.399902 658.8C0.399902 656.8 0.399902 654.8 0.399902 652.8C0.399902 652.5 0.399902 652.2 -9.76548e-05 652C-9.76548e-05 651.6 -9.76548e-05 651.3 -9.76548e-05 650.9C0.0999023 650.9 0.199902 651 0.399902 651.1C0.399902 650.9 0.399902 650.7 0.399902 650.5C0.399902 648.5 0.399902 646.5 0.399902 644.5C0.399902 644.2 0.399902 643.8 -9.76548e-05 643.7C-9.76548e-05 643.3 -9.76548e-05 643 -9.76548e-05 642.6C0.0999023 642.6 0.199902 642.7 0.299902 642.8C0.299902 640.6 0.299902 638.4 0.299902 636.2C0.0999023 636.2 0.0999023 636.3 -9.76548e-05 636.4C-9.76548e-05 635.7 -9.76548e-05 635.1 -9.76548e-05 634.4C0.199902 634.6 0.399902 634.8 0.599902 634.9C1.7999 633.7 2.9999 632.5 4.0999 631.4C2.7999 630.1 1.3999 628.7 0.0999023 627.2C0.0999023 626.8 0.0999023 626.5 0.0999023 626.1C0.199902 626.2 0.399902 626.3 0.499902 626.4C1.7999 627.7 3.1999 629.1 4.4999 630.4C4.5999 630.5 4.6999 630.6 4.7999 630.7C5.9999 629.5 7.1999 628.3 8.3999 627.1C8.0999 626.8 7.6999 626.5 7.3999 626.2C4.9999 623.8 2.4999 621.3 0.0999023 618.9C0.0999023 618.5 0.0999023 618.2 0.0999023 617.8C0.299902 617.9 0.399902 618 0.499902 618.1C3.1999 620.8 5.8999 623.5 8.6999 626.3C8.7999 626.4 8.8999 626.5 8.9999 626.6C10.1999 625.4 11.3999 624.2 12.5999 623.1C8.4999 619 4.2999 614.9 0.199902 610.7C0.199902 610.3 0.199902 610 0.199902 609.6C0.399902 609.7 0.499902 609.8 0.699902 610C4.7999 614.1 8.8999 618.2 12.9999 622.3C13.0999 622.4 13.2999 622.5 13.2999 622.6C14.4999 621.4 15.6999 620.2 16.7999 619.1C11.4999 613.8 6.0999 608.4 0.699902 603C0.599902 603.1 0.399902 603.2 0.299902 603.3C0.299902 602.9 0.299902 602.6 0.299902 602.2C0.299902 602.1 0.399902 601.9 0.399902 601.8C0.399902 599.6 0.399902 597.4 0.399902 595.3C0.399902 595.2 0.399902 595 0.299902 594.9C0.299902 594.2 0.299902 593.5 0.299902 592.8C0.499902 593 0.599902 593.1 0.799902 593.2C4.7999 589.2 8.7999 585.2 12.6999 581.3C11.5999 580.1 10.3999 579 9.1999 577.8C6.4999 580.5 3.6999 583.3 0.899902 586.2C0.699902 586 0.599902 585.9 0.399902 585.8C0.399902 585.4 0.399902 585.1 0.399902 584.7C0.599902 584.8 0.699902 584.9 0.899902 585C3.4999 582.4 6.0999 579.8 8.5999 577.3C7.3999 576.1 6.2999 575 5.0999 573.8C3.7999 575.1 2.2999 576.6 0.899902 578C0.699902 577.9 0.599902 577.8 0.399902 577.7C0.399902 577.3 0.399902 576.9 0.399902 576.5C0.599902 576.6 0.699902 576.8 0.899902 576.8C2.0999 575.6 3.2999 574.4 4.4999 573.2C3.3999 572.1 2.1999 570.9 0.999902 569.7C0.799902 569.9 0.699902 570 0.499902 570.2C0.499902 569.5 0.499902 568.8 0.499902 568.1C0.599902 568.2 0.699902 568.2 0.899902 568.3C0.899902 568 0.899902 567.9 0.899902 567.7C0.899902 565.7 0.899902 563.6 0.899902 561.6C0.899902 561.3 0.799902 561.1 0.499902 560.9C0.499902 560.5 0.499902 560.2 0.499902 559.8C0.599902 559.8 0.699902 559.9 0.899902 560C0.899902 559.8 0.899902 559.6 0.899902 559.5C0.899902 557.5 0.899902 555.5 0.899902 553.5C0.899902 553.2 0.899902 552.9 0.499902 552.7C0.499902 552.3 0.499902 552 0.499902 551.6C0.599902 551.6 0.699902 551.7 0.899902 551.8C0.899902 551.6 0.899902 551.4 0.899902 551.2C0.899902 549.2 0.899902 547.2 0.899902 545.2C0.899902 544.9 0.899902 544.5 0.499902 544.4C0.499902 544 0.499902 543.7 0.499902 543.3C0.599902 543.3 0.699902 543.4 0.799902 543.5C0.799902 541.3 0.799902 539.1 0.799902 536.9C0.599902 536.9 0.599902 537 0.499902 537.1C0.499902 536.4 0.499902 535.8 0.499902 535.1C0.699902 535.3 0.899902 535.5 1.0999 535.6C2.2999 534.4 3.4999 533.2 4.5999 532.1C3.2999 530.8 1.8999 529.4 0.599902 527.9C0.599902 527.5 0.599902 527.2 0.599902 526.8C0.699902 526.9 0.899902 527 0.999902 527.1C2.2999 528.4 3.6999 529.8 4.9999 531.1C5.0999 531.2 5.1999 531.3 5.2999 531.4C6.4999 530.2 7.6999 529 8.8999 527.8C8.5999 527.5 8.1999 527.2 7.8999 526.9C5.4999 524.5 2.9999 522 0.599902 519.6C0.599902 519.2 0.599902 518.9 0.599902 518.5C0.799902 518.6 0.899902 518.7 0.999902 518.8C3.6999 521.5 6.3999 524.2 9.1999 527C9.2999 527.1 9.3999 527.2 9.4999 527.3C10.6999 526.1 11.8999 524.9 13.0999 523.7C8.9999 519.6 4.7999 515.5 0.699902 511.3C0.699902 510.9 0.699902 510.6 0.699902 510.2C0.899902 510.3 0.999902 510.4 1.1999 510.6C5.2999 514.7 9.3999 518.8 13.4999 522.9C13.5999 523 13.7999 523.1 13.7999 523.2C14.9999 522 16.1999 520.8 17.2999 519.7C11.9999 514.4 6.5999 509 1.1999 503.6C1.0999 503.7 0.899902 503.8 0.799902 503.9C0.799902 503.5 0.799902 503.2 0.799902 502.8C0.799902 502.7 0.899902 502.5 0.899902 502.4C0.899902 500.2 0.899902 498 0.899902 495.9C0.899902 495.8 0.899902 495.6 0.799902 495.5C0.799902 494.8 0.799902 494.1 0.799902 493.4C0.999902 493.6 1.0999 493.7 1.2999 493.8C5.2999 489.8 9.2999 485.8 13.1999 481.9C12.0999 480.7 10.8999 479.6 9.6999 478.4C6.9999 481.1 4.1999 483.9 1.3999 486.8C1.1999 486.6 1.0999 486.5 0.899902 486.4C0.899902 486 0.899902 485.7 0.899902 485.3C1.0999 485.4 1.1999 485.5 1.3999 485.6C3.9999 483 6.5999 480.4 9.0999 477.9C7.8999 476.7 6.7999 475.6 5.5999 474.4C4.2999 475.7 2.7999 477.2 1.3999 478.6C1.1999 478.5 1.0999 478.4 0.899902 478.3C0.899902 477.9 0.899902 477.5 0.899902 477.1C1.0999 477.2 1.1999 477.4 1.3999 477.4C2.5999 476.2 3.7999 475 4.9999 473.8C3.8999 472.7 2.6999 471.5 1.4999 470.3C1.2999 470.5 1.1999 470.6 0.999902 470.8C0.999902 470.1 0.999902 469.4 0.999902 468.7C1.0999 468.8 1.1999 468.8 1.3999 468.9C1.3999 468.6 1.3999 468.5 1.3999 468.3C1.3999 466.3 1.3999 464.2 1.3999 462.2C1.3999 461.9 1.2999 461.7 0.999902 461.5C0.999902 461.1 0.999902 460.8 0.999902 460.4C1.0999 460.4 1.1999 460.5 1.3999 460.6C1.3999 460.4 1.3999 460.2 1.3999 460.1C1.3999 458.1 1.3999 456.1 1.3999 454.1C1.3999 453.8 1.3999 453.5 0.999902 453.3C0.999902 452.9 0.999902 452.6 0.999902 452.2C1.0999 452.2 1.1999 452.3 1.3999 452.4C1.3999 452.2 1.3999 452 1.3999 451.8C1.3999 449.8 1.3999 447.8 1.3999 445.8C1.3999 445.5 1.3999 445.1 0.999902 445C0.999902 444.6 0.999902 444.3 0.999902 443.9C1.0999 443.9 1.1999 444 1.2999 444.1C1.2999 441.9 1.2999 439.7 1.2999 437.5C1.0999 437.5 1.0999 437.6 0.999902 437.7C0.999902 437 0.999902 436.4 0.999902 435.7C1.1999 435.9 1.3999 436.1 1.5999 436.2C2.7999 435 3.9999 433.8 5.0999 432.7C3.7999 431.4 2.3999 430 1.0999 428.5C1.0999 428.1 1.0999 427.8 1.0999 427.4C1.1999 427.5 1.3999 427.6 1.4999 427.7C2.7999 429 4.1999 430.4 5.4999 431.7C5.5999 431.8 5.6999 431.9 5.7999 432C6.9999 430.8 8.1999 429.6 9.3999 428.4C9.0999 428.1 8.6999 427.8 8.3999 427.5C5.9999 425.1 3.4999 422.6 1.0999 420.2C1.0999 419.8 1.0999 419.5 1.0999 419.1C1.2999 419.2 1.3999 419.3 1.4999 419.4C4.1999 422.1 6.8999 424.8 9.6999 427.6C9.7999 427.7 9.8999 427.8 9.9999 427.9C11.1999 426.7 12.3999 425.5 13.5999 424.4C9.4999 420.3 5.2999 416.2 1.1999 412C1.1999 411.6 1.1999 411.3 1.1999 410.9C1.3999 411 1.4999 411.1 1.6999 411.3C5.7999 415.4 9.8999 419.5 13.9999 423.6C14.0999 423.7 14.2999 423.8 14.2999 423.9C15.4999 422.7 16.6999 421.5 17.7999 420.4C12.4999 415.1 7.0999 409.7 1.6999 404.3C1.5999 404.4 1.3999 404.5 1.2999 404.6C1.2999 403.6 1.2999 402.5 1.2999 401.4C1.5999 401.4 1.8999 401.4 2.1999 401.4C2.1999 401.9 2.1999 402.5 2.1999 403C2.1999 403.2 2.2999 403.5 2.4999 403.7C3.3999 404.6 4.2999 405.5 5.1999 406.4C5.2999 406.5 5.3999 406.6 5.4999 406.7C5.4999 404.9 5.4999 403.2 5.4999 401.5C5.7999 401.5 5.9999 401.5 6.2999 401.5C6.2999 403.4 6.2999 405.4 6.2999 407.3C6.2999 407.5 6.3999 407.8 6.4999 407.9C7.3999 408.8 8.2999 409.7 9.1999 410.6C9.2999 410.7 9.3999 410.7 9.4999 410.8C9.4999 409.5 9.4999 408.3 9.4999 407.2C9.4999 405.3 9.4999 403.4 9.4999 401.5C9.7999 401.5 9.9999 401.5 10.2999 401.5C10.2999 404.9 10.2999 408.2 10.2999 411.5C10.2999 411.7 10.3999 411.9 10.4999 412C11.3999 412.9 12.2999 413.8 13.1999 414.7C13.2999 414.8 13.3999 414.8 13.4999 414.9C13.4999 414.6 13.4999 414.4 13.4999 414.2C13.4999 410.1 13.4999 406 13.4999 401.9C13.4999 401.7 13.4999 401.5 13.4999 401.3C13.6999 401.3 13.9999 401.3 14.1999 401.3C14.1999 401.5 14.1999 401.7 14.1999 402C14.1999 406.4 14.1999 410.8 14.1999 415.3C14.1999 415.5 14.1999 415.8 14.3999 416C15.4999 417.1 16.5999 418.2 17.6999 419.3C17.6999 420 17.6999 420.7 17.6999 421.4C16.6999 422.4 15.7999 423.4 14.7999 424.5C15.6999 425.4 16.6999 426.4 17.6999 427.4C17.6999 427.8 17.6999 428.1 17.6999 428.5C16.9999 427.8 16.2999 427.2 15.5999 426.5C15.0999 426 14.5999 425.5 14.1999 425.1C12.9999 426.3 11.7999 427.5 10.6999 428.6C10.6999 428.6 10.7999 428.7 10.8999 428.8C13.0999 431 15.2999 433.2 17.4999 435.4C17.5999 435.5 17.6999 435.5 17.7999 435.6C17.7999 436 17.7999 436.4 17.7999 436.8C17.6999 436.7 17.4999 436.6 17.3999 436.5C15.0999 434.2 12.7999 431.9 10.4999 429.6C10.2999 429.4 10.2999 429.3 10.1999 429.2C8.8999 430.5 7.7999 431.7 6.5999 432.8C6.5999 432.8 6.6999 432.9 6.7999 433C10.3999 436.6 13.9999 440.2 17.4999 443.7C17.5999 443.8 17.6999 443.9 17.7999 443.9C17.7999 444.3 17.7999 444.7 17.7999 445.1C17.5999 444.9 17.4999 444.8 17.3999 444.7C13.6999 441 10.0999 437.4 6.3999 433.7C6.1999 433.5 6.0999 433.4 6.0999 433.4C4.8999 434.6 3.6999 435.8 2.5999 436.9C2.6999 437 2.7999 437.1 2.8999 437.2C6.5999 440.9 10.1999 444.5 13.8999 448.2C15.1999 449.5 16.5999 450.9 17.8999 452.2C17.8999 452.6 17.8999 452.9 17.8999 453.3C17.7999 453.2 17.5999 453.1 17.4999 453C15.2999 450.8 13.1999 448.7 10.9999 446.5C10.8999 446.4 10.7999 446.2 10.7999 446C10.7999 446 10.6999 446.1 10.5999 446.2C10.5999 451 10.5999 455.7 10.5999 460.5C10.5999 460.5 10.6999 460.5 10.6999 460.6C10.7999 460.5 10.8999 460.3 10.9999 460.2C13.1999 458 15.2999 455.9 17.3999 453.8C17.4999 453.7 17.6999 453.6 17.7999 453.5C17.7999 453.9 17.7999 454.2 17.7999 454.6C17.5999 454.8 17.4999 454.9 17.3999 455C14.8999 457.5 12.3999 460 9.8999 462.5C7.4999 464.9 5.1999 467.2 2.7999 469.6C2.6999 469.7 2.5999 469.9 2.4999 469.9C3.6999 471.1 4.8999 472.3 6.0999 473.5C6.1999 473.3 6.2999 473.2 6.3999 473C10.0999 469.3 13.6999 465.6 17.3999 462C17.4999 461.9 17.6999 461.8 17.7999 461.7C17.7999 462.1 17.7999 462.5 17.7999 462.9C17.6999 463 17.5999 463.1 17.4999 463.2C13.9999 466.7 10.3999 470.3 6.8999 473.8C6.7999 473.9 6.6999 474 6.5999 474.1C7.7999 475.3 8.9999 476.5 10.0999 477.6C10.1999 477.5 10.2999 477.4 10.4999 477.3C12.7999 475 15.0999 472.7 17.3999 470.4C17.4999 470.3 17.6999 470.2 17.7999 470.1C17.7999 470.5 17.7999 470.9 17.7999 471.3C17.6999 471.4 17.5999 471.5 17.4999 471.5C15.2999 473.7 13.0999 475.9 10.8999 478.1C10.7999 478.2 10.6999 478.3 10.6999 478.3C11.8999 479.5 13.0999 480.7 14.1999 481.8C14.9999 481 15.9999 480 16.8999 479.1C17.1999 478.8 17.3999 478.6 17.6999 478.4C17.6999 478.8 17.6999 479.1 17.6999 479.5C16.6999 480.5 15.6999 481.5 14.7999 482.4C15.7999 483.4 16.7999 484.4 17.6999 485.4C17.6999 485.8 17.6999 486.1 17.6999 486.5C17.5999 486.4 17.3999 486.3 17.2999 486.2C16.3999 485.3 15.4999 484.4 14.5999 483.5C14.4999 483.4 14.3999 483.3 14.1999 483.2C14.1999 483.5 14.1999 483.7 14.1999 483.9C14.1999 489.8 14.1999 495.7 14.1999 501.6C14.1999 506.1 14.1999 510.6 14.1999 515.2C14.1999 515.4 14.1999 515.7 14.3999 515.9C15.4999 517 16.5999 518.1 17.6999 519.2C17.6999 519.9 17.6999 520.6 17.6999 521.3C16.6999 522.3 15.7999 523.3 14.7999 524.4C15.6999 525.3 16.6999 526.3 17.6999 527.3C17.6999 527.7 17.6999 528 17.6999 528.4C16.9999 527.7 16.2999 527.1 15.5999 526.4C15.0999 525.9 14.5999 525.4 14.1999 525C12.9999 526.2 11.7999 527.4 10.6999 528.5C10.6999 528.5 10.7999 528.6 10.8999 528.7C13.0999 530.9 15.2999 533.1 17.4999 535.3C17.5999 535.4 17.6999 535.4 17.7999 535.5C17.7999 535.9 17.7999 536.3 17.7999 536.7C17.6999 536.6 17.4999 536.5 17.3999 536.4C15.0999 534.1 12.7999 531.8 10.4999 529.5C10.2999 529.3 10.2999 529.2 10.1999 529.1C8.8999 530.4 7.7999 531.6 6.5999 532.7C6.5999 532.7 6.6999 532.8 6.7999 532.9C10.3999 536.5 13.9999 540.1 17.4999 543.6C17.5999 543.7 17.6999 543.8 17.7999 543.8C17.7999 544.2 17.7999 544.6 17.7999 545C17.5999 544.8 17.4999 544.7 17.3999 544.6C13.6999 540.9 10.0999 537.3 6.3999 533.6C6.1999 533.4 6.0999 533.3 6.0999 533.3C4.8999 534.5 3.6999 535.7 2.5999 536.8C2.6999 536.9 2.7999 537 2.8999 537.1C6.5999 540.8 10.1999 544.4 13.8999 548.1C15.1999 549.4 16.5999 550.8 17.8999 552.1C17.8999 552.5 17.8999 552.8 17.8999 553.2C17.7999 553.1 17.5999 553 17.4999 552.9C15.2999 550.7 13.1999 548.6 10.9999 546.4C10.8999 546.3 10.7999 546.1 10.7999 545.9C10.7999 545.9 10.6999 546 10.5999 546.1C10.5999 550.9 10.5999 555.6 10.5999 560.4H10.6999C10.7999 560.3 10.8999 560.2 10.9999 560.1C13.1999 557.9 15.2999 555.8 17.3999 553.7C17.4999 553.6 17.6999 553.5 17.7999 553.4C17.7999 553.8 17.7999 554.1 17.7999 554.5C17.5999 554.7 17.4999 554.8 17.3999 554.9C14.8999 557.4 12.3999 559.9 9.8999 562.4C7.4999 564.8 5.1999 567.1 2.7999 569.5C2.6999 569.6 2.5999 569.8 2.4999 569.8C3.6999 571 4.8999 572.2 6.0999 573.4C6.1999 573.2 6.2999 573.1 6.3999 572.9C10.0999 569.2 13.6999 565.5 17.3999 561.9C17.4999 561.8 17.6999 561.7 17.7999 561.6C17.7999 562 17.7999 562.4 17.7999 562.8C17.6999 562.9 17.5999 563 17.4999 563.1C13.9999 566.6 10.3999 570.2 6.8999 573.7C6.7999 573.8 6.6999 573.9 6.5999 574C7.7999 575.2 8.9999 576.4 10.0999 577.5C10.1999 577.4 10.2999 577.3 10.4999 577.2C12.7999 574.9 15.0999 572.6 17.3999 570.3C17.4999 570.2 17.6999 570.1 17.7999 570C17.7999 570.4 17.7999 570.8 17.7999 571.2C17.6999 571.3 17.5999 571.4 17.4999 571.4C15.2999 573.6 13.0999 575.8 10.8999 578C10.7999 578.1 10.6999 578.2 10.6999 578.2C11.8999 579.4 13.0999 580.6 14.1999 581.7C14.9999 580.9 15.9999 579.9 16.8999 579C17.1999 578.7 17.3999 578.5 17.6999 578.3C17.6999 578.7 17.6999 579 17.6999 579.4C16.6999 580.4 15.6999 581.4 14.7999 582.3C15.7999 583.3 16.7999 584.3 17.6999 585.3C17.6999 585.7 17.6999 586 17.6999 586.4C17.5999 586.3 17.3999 586.2 17.2999 586.1C16.3999 585.2 15.4999 584.3 14.5999 583.4C14.4999 583.3 14.3999 583.2 14.1999 583.1C14.1999 583.4 14.1999 583.6 14.1999 583.8C14.1999 589.7 14.1999 595.6 14.1999 601.5C14.1999 606 14.1999 610.5 14.1999 615.1C14.1999 615.3 14.1999 615.6 14.3999 615.8C15.4999 616.9 16.5999 618 17.6999 619.1C17.6999 619.8 17.6999 620.5 17.6999 621.2C16.6999 622.2 15.7999 623.2 14.7999 624.3C15.6999 625.2 16.6999 626.2 17.6999 627.2C17.6999 627.6 17.6999 627.9 17.6999 628.3C16.9999 627.6 16.2999 627 15.5999 626.3C15.0999 625.8 14.5999 625.3 14.1999 624.9C12.9999 626.1 11.7999 627.3 10.6999 628.4C10.6999 628.4 10.7999 628.5 10.8999 628.6C13.0999 630.8 15.2999 633 17.4999 635.2C17.5999 635.3 17.6999 635.3 17.7999 635.4C17.7999 635.8 17.7999 636.2 17.7999 636.6C17.6999 636.5 17.4999 636.4 17.3999 636.3C15.0999 634 12.7999 631.7 10.4999 629.4C10.2999 629.2 10.2999 629.1 10.1999 629C8.8999 630.3 7.7999 631.5 6.5999 632.6C6.5999 632.6 6.6999 632.7 6.7999 632.8C10.3999 636.4 13.9999 640 17.4999 643.5C17.5999 643.6 17.6999 643.7 17.7999 643.7C17.7999 644.1 17.7999 644.5 17.7999 644.9C17.5999 644.7 17.4999 644.6 17.3999 644.5C13.6999 640.8 10.0999 637.2 6.3999 633.5C6.1999 633.3 6.0999 633.2 6.0999 633.2C4.8999 634.4 3.6999 635.6 2.5999 636.7C2.6999 636.8 2.7999 636.9 2.8999 637C6.5999 640.7 10.1999 644.3 13.8999 648C15.1999 649.3 16.5999 650.7 17.8999 652C17.8999 652.4 17.8999 652.7 17.8999 653.1C17.7999 653 17.5999 652.9 17.4999 652.8C15.2999 650.6 13.1999 648.5 10.9999 646.3C10.8999 646.2 10.7999 646 10.7999 645.8C10.7999 645.8 10.6999 645.9 10.5999 646C10.5999 650.8 10.5999 655.5 10.5999 660.4C10.7999 660.2 10.8999 660.1 10.9999 660C13.1999 657.8 15.2999 655.7 17.3999 653.6C17.4999 653.5 17.6999 653.4 17.7999 653.3C17.7999 653.7 17.7999 654 17.7999 654.4C17.5999 654.6 17.4999 654.7 17.3999 654.8C14.8999 657.3 12.3999 659.8 9.8999 662.3C7.4999 664.7 5.1999 667 2.7999 669.4C2.6999 669.5 2.5999 669.7 2.4999 669.7C3.6999 670.9 4.8999 672.1 6.0999 673.3C6.1999 673.1 6.2999 673 6.3999 672.8C10.0999 669.1 13.6999 665.4 17.3999 661.8C17.4999 661.7 17.6999 661.6 17.7999 661.5C17.7999 661.9 17.7999 662.3 17.7999 662.7C17.6999 662.8 17.5999 662.9 17.4999 663C13.9999 666.5 10.3999 670.1 6.8999 673.6C6.7999 673.7 6.6999 673.8 6.5999 673.9C7.7999 675.1 8.9999 676.3 10.0999 677.4C10.1999 677.3 10.2999 677.2 10.4999 677.1C12.7999 674.8 15.0999 672.5 17.3999 670.2C17.4999 670.1 17.6999 670 17.7999 669.9C17.7999 670.3 17.7999 670.7 17.7999 671.1C17.6999 671.2 17.5999 671.3 17.4999 671.3C15.2999 673.5 13.0999 675.7 10.8999 677.9C10.7999 678 10.6999 678.1 10.6999 678.1C11.8999 679.3 13.0999 680.5 14.1999 681.6C15.0999 680.7 15.9999 679.8 16.8999 678.9C17.1999 678.6 17.3999 678.4 17.6999 678.2C17.6999 678.6 17.6999 678.9 17.6999 679.3C16.6999 680.3 15.6999 681.3 14.7999 682.2C15.7999 683.2 16.7999 684.2 17.6999 685.2C17.6999 685.6 17.6999 685.9 17.6999 686.3C17.5999 686.2 17.3999 686.1 17.2999 686C16.3999 685.1 15.4999 684.2 14.5999 683.3C14.4999 683.2 14.3999 683.1 14.1999 683C14.1999 683.3 14.1999 683.5 14.1999 683.7C14.1999 689.6 14.1999 695.5 14.1999 701.4C14.1999 705.9 14.1999 710.4 14.1999 715C14.1999 715.2 14.1999 715.5 14.3999 715.7C15.4999 716.8 16.5999 717.9 17.6999 719C17.6999 719.7 17.6999 720.4 17.6999 721.1C16.6999 722.1 15.7999 723.1 14.7999 724.2C15.6999 725.1 16.6999 726.1 17.6999 727.1C17.6999 727.5 17.6999 727.8 17.6999 728.2C16.9999 727.5 16.2999 726.9 15.5999 726.2C15.0999 725.7 14.5999 725.2 14.1999 724.8C12.9999 726 11.7999 727.2 10.6999 728.3C10.6999 728.3 10.7999 728.4 10.8999 728.5C13.0999 730.7 15.2999 732.9 17.4999 735.1C17.5999 735.2 17.6999 735.2 17.7999 735.3C17.7999 735.7 17.7999 736.1 17.7999 736.5C17.6999 736.4 17.4999 736.3 17.3999 736.2C15.0999 733.9 12.7999 731.6 10.4999 729.3C10.2999 729.1 10.2999 729 10.1999 728.9C8.8999 730.2 7.7999 731.4 6.5999 732.5C6.5999 732.5 6.6999 732.6 6.7999 732.7C10.3999 736.3 13.9999 739.9 17.4999 743.4C17.5999 743.5 17.6999 743.6 17.7999 743.6C17.7999 744 17.7999 744.4 17.7999 744.8C17.5999 744.6 17.4999 744.5 17.3999 744.4C13.6999 740.7 10.0999 737.1 6.3999 733.4C6.1999 733.2 6.0999 733.1 6.0999 733.1C4.8999 734.3 3.6999 735.5 2.5999 736.6C2.6999 736.7 2.7999 736.8 2.8999 736.9C6.5999 740.6 10.1999 744.2 13.8999 747.9C15.1999 749.2 16.5999 750.6 17.8999 751.9C17.8999 752.3 17.8999 752.6 17.8999 753C17.7999 752.9 17.5999 752.8 17.4999 752.7C15.2999 750.5 13.1999 748.4 10.9999 746.2C10.8999 746.1 10.7999 745.9 10.7999 745.7C10.7999 745.7 10.6999 745.8 10.5999 745.9C10.5999 750.7 10.5999 755.4 10.5999 760.2C10.5999 760.2 10.6999 760.2 10.6999 760.3C10.7999 760.2 10.8999 760 10.9999 759.9C13.1999 757.7 15.2999 755.6 17.3999 753.5C17.4999 753.4 17.6999 753.3 17.7999 753.2C17.7999 753.6 17.7999 753.9 17.7999 754.3C17.5999 754.5 17.4999 754.6 17.3999 754.7C14.8999 757.2 12.3999 759.7 9.8999 762.2C7.4999 764.6 5.1999 766.9 2.7999 769.3C2.6999 769.4 2.5999 769.6 2.4999 769.6C3.6999 770.8 4.8999 772 6.0999 773.2C6.1999 773 6.2999 772.9 6.3999 772.7C10.0999 769 13.6999 765.3 17.3999 761.7C17.4999 761.6 17.6999 761.5 17.7999 761.4C17.7999 761.8 17.7999 762.2 17.7999 762.6C17.6999 762.7 17.5999 762.8 17.4999 762.9C13.9999 766.4 10.3999 770 6.8999 773.5C6.7999 773.6 6.6999 773.7 6.5999 773.8C7.7999 775 8.9999 776.2 10.0999 777.3C10.1999 777.2 10.2999 777.1 10.4999 777C12.7999 774.7 15.0999 772.4 17.3999 770.1C17.4999 770 17.6999 769.9 17.7999 769.8C17.7999 770.2 17.7999 770.6 17.7999 771C17.6999 771.1 17.5999 771.2 17.4999 771.2C15.2999 773.4 13.0999 775.6 10.8999 777.8C10.7999 777.9 10.6999 778 10.6999 778C11.8999 779.2 13.0999 780.4 14.1999 781.5C15.0999 780.6 15.9999 779.7 16.8999 778.8C17.1999 778.5 17.3999 778.3 17.6999 778.1C17.6999 778.5 17.6999 778.8 17.6999 779.2C16.6999 780.2 15.6999 781.2 14.7999 782.1C15.7999 783.1 16.7999 784.1 17.6999 785.1C17.6999 785.5 17.6999 785.8 17.6999 786.2C17.5999 786.1 17.3999 786 17.2999 785.9C16.3999 785 15.4999 784.1 14.5999 783.2C14.4999 783.1 14.3999 783 14.1999 782.9C14.1999 783.2 14.1999 783.4 14.1999 783.6C14.1999 789.5 14.1999 795.4 14.1999 801.3C14.1999 805.8 14.1999 810.3 14.1999 814.9C14.1999 815.1 14.1999 815.4 14.3999 815.6C15.4999 816.7 16.5999 817.8 17.6999 818.9C17.6999 819.6 17.6999 820.3 17.6999 821C16.6999 822 15.7999 823 14.7999 824.1C15.6999 825 16.6999 826 17.6999 827C17.6999 827.4 17.6999 827.7 17.6999 828.1C16.9999 827.4 16.2999 826.8 15.5999 826.1C15.0999 825.6 14.5999 825.1 14.1999 824.7C12.9999 825.9 11.7999 827.1 10.6999 828.2C10.6999 828.2 10.7999 828.3 10.8999 828.4C13.0999 830.6 15.2999 832.8 17.4999 835C17.5999 835.1 17.6999 835.1 17.7999 835.2C17.7999 835.6 17.7999 836 17.7999 836.4C17.6999 836.3 17.4999 836.2 17.3999 836.1C15.0999 833.8 12.7999 831.5 10.4999 829.2C10.2999 829 10.2999 828.9 10.1999 828.8C8.8999 830.1 7.7999 831.3 6.5999 832.4C6.5999 832.4 6.6999 832.5 6.7999 832.6C10.3999 836.2 13.9999 839.8 17.4999 843.3C17.5999 843.4 17.6999 843.5 17.7999 843.5C17.7999 843.9 17.7999 844.3 17.7999 844.7C17.5999 844.5 17.4999 844.4 17.3999 844.3C13.6999 840.6 10.0999 837 6.3999 833.3C6.1999 833.1 6.1999 833 6.0999 832.9C4.7999 834.2 3.6999 835.3 2.3999 836.6C2.4999 836.7 2.5999 836.8 2.6999 836.9C5.2999 839.5 7.8999 842.1 10.3999 844.6C10.4999 844.7 10.5999 844.9 10.6999 845C10.2999 845 9.8999 845 9.4999 845C9.3999 844.9 9.2999 844.7 9.1999 844.6C8.3999 843.8 7.5999 843 6.7999 842.2C6.6999 842 6.5999 841.9 6.4999 841.7C6.3999 841.7 6.2999 841.8 6.2999 841.9C6.2999 842.9 6.2999 844 6.2999 845.1C5.9999 845.1 5.7999 845.1 5.4999 845.1C5.4999 843.8 5.4999 842.6 5.4999 841.3C5.4999 841.1 5.3999 840.8 5.2999 840.7C4.2999 839.7 3.3999 838.7 2.3999 837.8C2.1999 836 2.1999 836 1.9999 835.9C1.9999 836.2 1.9999 836.3 1.9999 836.5C1.9999 838.8 1.9999 841.1 1.9999 843.4C1.5999 843.4 1.1999 843.4 0.799902 843.4C0.799902 843 0.799902 842.6 0.799902 842.1C0.899902 842.1 0.999902 842.2 1.0999 842.3C1.0999 840.1 1.0999 837.9 1.0999 835.7C0.899902 835.7 0.899902 835.8 0.799902 835.9C0.799902 835.2 0.799902 834.6 0.799902 833.9C0.999902 834.1 1.1999 834.3 1.3999 834.4C2.5999 833.2 3.7999 832 4.8999 830.9C3.5999 829.6 2.1999 828.2 0.899902 826.7C0.899902 826.3 0.899902 826 0.899902 825.6C0.999902 825.7 1.1999 825.8 1.2999 825.9C2.5999 827.2 3.9999 828.6 5.2999 829.9C5.3999 830 5.4999 830.1 5.5999 830.2C6.7999 829 7.9999 827.8 9.1999 826.6C8.8999 826.3 8.4999 826 8.1999 825.7C5.7999 823.3 3.2999 820.8 0.899902 818.4C0.899902 818 0.899902 817.7 0.899902 817.3C1.0999 817.4 1.1999 817.5 1.2999 817.6C3.9999 820.3 6.6999 823 9.4999 825.8C9.5999 825.9 9.6999 826 9.7999 826.1C10.9999 824.9 12.1999 823.7 13.3999 822.5C9.2999 818.4 5.0999 814.3 0.999902 810.1C0.999902 809.7 0.999902 809.4 0.999902 809C1.1999 809.1 1.2999 809.2 1.4999 809.4C5.5999 813.5 9.6999 817.6 13.7999 821.7C13.8999 821.8 14.0999 821.9 14.0999 822C15.2999 820.8 16.4999 819.6 17.5999 818.5C12.2999 813.2 6.8999 807.8 1.4999 802.4C1.3999 802.5 1.1999 802.6 1.0999 802.7C1.0999 802.3 1.0999 802 1.0999 801.6C1.0999 801.5 1.1999 801.3 1.1999 801.2C1.1999 799 1.1999 796.8 1.1999 794.7C1.1999 794.6 1.1999 794.4 1.0999 794.3C1.0999 793.6 1.0999 792.9 1.0999 792.2C1.2999 792.4 1.3999 792.5 1.5999 792.6C5.5999 788.6 9.5999 784.6 13.4999 780.7C12.3999 779.5 11.1999 778.4 9.9999 777.2C7.2999 779.9 4.4999 782.7 1.6999 785.6C1.4999 785.4 1.3999 785.3 1.1999 785.2C1.1999 784.8 1.1999 784.5 1.1999 784.1C1.3999 784.2 1.4999 784.3 1.6999 784.4C4.2999 781.8 6.8999 779.2 9.3999 776.7C8.1999 775.5 7.0999 774.4 5.8999 773.2C4.5999 774.5 3.0999 776 1.6999 777.4C1.4999 777.3 1.3999 777.2 1.1999 777.1C1.1999 776.7 1.1999 776.3 1.1999 775.9C1.3999 776 1.4999 776.2 1.6999 776.2C2.8999 775 4.0999 773.8 5.2999 772.6C4.1999 771.5 2.9999 770.3 1.7999 769.1C1.5999 769.3 1.4999 769.4 1.2999 769.6C1.2999 768.9 1.2999 768.2 1.2999 767.5C1.3999 767.6 1.4999 767.6 1.6999 767.7C1.6999 767.4 1.6999 767.3 1.6999 767.1C1.6999 765.1 1.6999 763 1.6999 761C1.6999 760.7 1.5999 760.5 1.2999 760.3C1.2999 759.9 1.2999 759.6 1.2999 759.2C1.3999 759.2 1.4999 759.3 1.6999 759.4C1.6999 759.2 1.6999 759 1.6999 758.9C1.6999 756.9 1.6999 754.9 1.6999 752.9C1.6999 752.6 1.6999 752.3 1.2999 752.1C1.2999 751.7 1.2999 751.4 1.2999 751C1.3999 751 1.4999 751.1 1.6999 751.2C1.6999 751 1.6999 750.8 1.6999 750.6C1.6999 748.6 1.6999 746.6 1.6999 744.6C1.6999 744.3 1.6999 743.9 1.2999 743.8C1.2999 743.4 1.2999 743.1 1.2999 742.7C1.3999 742.7 1.4999 742.8 1.5999 742.9C1.5999 740.7 1.5999 738.5 1.5999 736.3C1.3999 736.3 1.3999 736.4 1.2999 736.5C1.2999 735.8 1.2999 735.2 1.2999 734.5C1.4999 734.7 1.6999 734.9 1.8999 735C3.0999 733.8 4.2999 732.6 5.3999 731.5C4.0999 730.2 2.6999 728.8 1.3999 727.3C1.3999 726.9 1.3999 726.6 1.3999 726.2C1.4999 726.3 1.6999 726.4 1.7999 726.5C3.0999 727.8 4.4999 729.2 5.7999 730.5C5.8999 730.6 5.9999 730.7 6.0999 730.8C7.2999 729.6 8.4999 728.4 9.6999 727.2C9.3999 726.9 8.9999 726.6 8.6999 726.3C6.2999 723.9 3.7999 721.4 1.3999 719C1.3999 718.6 1.3999 718.3 1.3999 717.9C1.5999 718 1.6999 718.1 1.7999 718.2C4.4999 720.9 7.1999 723.6 9.9999 726.4C10.0999 726.5 10.1999 726.6 10.2999 726.7C11.4999 725.5 12.6999 724.3 13.8999 723.2C9.7999 719.1 5.5999 715 1.4999 710.8C1.4999 710.4 1.4999 710.1 1.4999 709.7C1.6999 709.8 1.7999 709.9 1.9999 710.1C6.0999 714.2 10.1999 718.3 14.2999 722.4C14.3999 722.5 14.5999 722.6 14.5999 722.7C15.7999 721.5 16.9999 720.3 18.0999 719.2C11.9999 713.4 6.5999 708 1.1999 702.7C1.0999 702.8 0.899902 702.9 0.799902 703C0.799902 702.6 0.799902 702.3 0.799902 701.9C0.799902 701.8 0.899902 701.6 0.899902 701.5C0.899902 699.3 0.899902 697.1 0.899902 695C0.899902 694.9 0.899902 694.7 0.799902 694.6C0.799902 693.9 0.799902 693.2 0.799902 692.5C0.999902 692.7 1.0999 692.8 1.2999 692.9C5.2999 688.9 9.2999 684.9 13.1999 681C11.9999 679.8 10.8999 678.7 9.6999 677.5C6.9999 680.2 4.1999 683 1.3999 685.9C0.199902 685.4 -9.76548e-05 685.2 -0.100098 685.1ZM1.0999 767.1C1.1999 767.1 1.1999 767.1 1.2999 767C2.2999 766 3.2999 765 4.2999 764C4.3999 763.9 4.4999 763.7 4.4999 763.5C4.4999 755.6 4.4999 747.7 4.4999 739.7C4.4999 739.5 4.3999 739.3 4.2999 739.2C3.2999 738.2 2.2999 737.2 1.2999 736.2C1.2999 736.2 1.1999 736.2 1.0999 736.1C1.0999 746.4 1.0999 756.7 1.0999 767.1ZM1.0999 436.6C1.0999 447 1.0999 457.3 1.0999 467.7C1.1999 467.7 1.2999 467.6 1.2999 467.6C2.2999 466.6 3.2999 465.6 4.2999 464.6C4.3999 464.5 4.4999 464.3 4.4999 464.1C4.4999 456.2 4.4999 448.3 4.4999 440.4C4.4999 440.2 4.4999 440.1 4.3999 439.9C3.2999 438.8 2.2999 437.8 1.0999 436.6ZM1.0999 667.3C1.1999 667.3 1.2999 667.2 1.2999 667.2C2.2999 666.2 3.2999 665.2 4.2999 664.2C4.3999 664.1 4.4999 663.9 4.4999 663.7C4.4999 655.8 4.4999 647.9 4.4999 640C4.4999 639.8 4.3999 639.5 4.1999 639.3C3.2999 638.3 2.3999 637.4 1.3999 636.5C1.2999 636.4 1.1999 636.3 1.0999 636.3C1.0999 646.6 1.0999 656.9 1.0999 667.3ZM1.0999 536.4C1.0999 546.8 1.0999 557.1 1.0999 567.5C1.1999 567.5 1.1999 567.5 1.2999 567.4C2.2999 566.4 3.2999 565.4 4.3999 564.3C4.4999 564.2 4.5999 564 4.5999 563.8C4.5999 555.9 4.5999 548 4.5999 540.1C4.5999 539.9 4.5999 539.8 4.4999 539.6C3.2999 538.6 2.2999 537.6 1.0999 536.4ZM12.3999 781.7C11.3999 782.7 10.3999 783.7 9.3999 784.7C9.1999 784.9 9.0999 785.2 9.0999 785.4C9.0999 793.4 9.0999 801.3 9.0999 809.3C9.0999 809.5 9.1999 809.8 9.3999 810C10.2999 810.9 11.1999 811.8 12.0999 812.7C12.1999 812.8 12.2999 812.9 12.3999 813C12.3999 802.5 12.3999 792.1 12.3999 781.7ZM12.3999 513.6C12.3999 503.1 12.3999 492.8 12.3999 482.3C11.3999 483.3 10.4999 484.2 9.4999 485.2C9.1999 485.5 9.0999 485.8 9.0999 486.2C9.0999 493.9 9.0999 501.7 9.0999 509.4C9.0999 510.1 9.2999 510.6 9.7999 511.1C10.6999 511.8 11.4999 512.7 12.3999 513.6ZM12.2999 613.4C12.2999 602.9 12.2999 592.6 12.2999 582.1C11.2999 583.1 10.3999 584 9.3999 585C9.0999 585.3 8.9999 585.6 8.9999 586C8.9999 593.3 8.9999 600.7 8.9999 608C8.9999 608.7 8.7999 609.5 9.0999 610.1C9.3999 610.7 9.9999 611.1 10.4999 611.6C11.1999 612.2 11.6999 612.8 12.2999 613.4ZM12.3999 681.9C11.3999 682.9 10.5999 683.8 9.5999 684.7C9.1999 685 9.0999 685.4 9.0999 685.9C9.0999 687.8 9.0999 689.8 9.0999 691.7C9.0999 697.6 9.0999 703.5 9.0999 709.3C9.0999 709.7 9.1999 710 9.4999 710.2C10.1999 710.9 10.9999 711.7 11.6999 712.4C11.8999 712.6 12.0999 712.9 12.2999 713.1L12.3999 713C12.3999 702.7 12.3999 692.3 12.3999 681.9ZM8.0999 609.2L8.1999 609.1C8.1999 601.5 8.1999 593.9 8.1999 586.3C8.0999 586.3 8.0999 586.3 7.9999 586.4C6.9999 587.4 5.9999 588.4 5.0999 589.3C4.9999 589.4 4.9999 589.7 4.9999 589.8C4.9999 595 4.9999 600.3 4.9999 605.5C4.9999 605.7 5.0999 606 5.2999 606.2C5.9999 607 6.7999 607.7 7.4999 608.4C7.6999 608.7 7.8999 609 8.0999 609.2ZM8.1999 509.5C8.1999 501.8 8.1999 494.2 8.1999 486.5C7.9999 486.7 7.8999 486.7 7.7999 486.8C6.9999 487.6 6.1999 488.4 5.3999 489.2C5.0999 489.5 4.8999 489.9 4.8999 490.3C4.8999 495.2 4.8999 500 4.8999 504.8C4.8999 505.8 5.0999 506.5 5.8999 507.1C6.6999 507.9 7.3999 508.6 8.1999 509.5ZM8.0999 709C8.0999 709 8.1999 708.9 8.2999 708.9C8.2999 701.3 8.2999 693.7 8.2999 686.1C8.1999 686.1 8.1999 686.1 8.0999 686.2C7.0999 687.2 6.0999 688.2 5.1999 689.1C4.9999 689.3 4.9999 689.5 4.9999 689.6C4.9999 694.9 4.9999 700.1 4.9999 705.4C4.9999 705.6 5.0999 705.8 5.2999 706C5.8999 706.7 6.4999 707.2 7.0999 707.9C7.3999 708.3 7.7999 708.6 8.0999 709ZM8.1999 785.9C8.0999 785.9 8.0999 785.9 7.9999 786C6.9999 787 5.9999 788 5.0999 788.9C4.9999 789 4.9999 789.3 4.9999 789.4C4.9999 794.6 4.9999 799.9 4.9999 805.1C4.9999 805.3 5.0999 805.6 5.2999 805.8C5.9999 806.6 6.7999 807.3 7.4999 808C7.6999 808.2 7.8999 808.5 8.1999 808.8L8.2999 808.7C8.1999 801.1 8.1999 793.5 8.1999 785.9ZM5.3999 640.4C5.3999 648 5.3999 655.5 5.3999 663.1C6.3999 662.1 7.3999 661.1 8.3999 660.1C8.4999 660 8.5999 659.8 8.5999 659.6C8.5999 654.4 8.5999 649.2 8.5999 644C8.5999 643.8 8.5999 643.7 8.3999 643.5C7.3999 642.5 6.4999 641.5 5.3999 640.4ZM5.3999 540.7C5.3999 548.3 5.3999 555.8 5.3999 563.3C6.3999 562.3 7.3999 561.3 8.3999 560.3C8.4999 560.2 8.5999 560 8.5999 559.8C8.5999 554.6 8.5999 549.4 8.5999 544.2C8.5999 544 8.5999 543.9 8.3999 543.7C7.3999 542.7 6.3999 541.7 5.3999 540.7ZM5.2999 762.9C5.3999 762.8 5.4999 762.8 5.4999 762.7C6.3999 761.8 7.3999 760.9 8.2999 759.9C8.3999 759.8 8.4999 759.5 8.4999 759.3C8.4999 754.1 8.4999 749 8.4999 743.8C8.4999 743.6 8.3999 743.3 8.1999 743.1C7.3999 742.2 6.4999 741.4 5.5999 740.5C5.4999 740.4 5.3999 740.3 5.2999 740.3C5.2999 747.8 5.2999 755.3 5.2999 762.9ZM5.3999 463.5C6.4999 462.4 7.4999 461.5 8.3999 460.5C8.4999 460.4 8.5999 460.2 8.5999 460C8.5999 454.8 8.5999 449.6 8.5999 444.5C8.5999 444.3 8.4999 444 8.2999 443.8C7.5999 443.1 6.8999 442.4 6.0999 441.6C5.8999 441.4 5.6999 441.1 5.4999 440.9L5.3999 441C5.3999 448.5 5.3999 455.9 5.3999 463.5ZM4.0999 690.2C3.8999 690.4 3.7999 690.4 3.7999 690.5C2.8999 691.4 1.9999 692.2 1.1999 693.2C0.999902 693.4 0.899902 693.7 0.899902 693.9C0.899902 696.4 0.899902 698.8 0.899902 701.3C0.899902 701.5 0.999902 701.8 1.1999 702C1.9999 702.9 2.9999 703.8 3.7999 704.7C3.8999 704.8 3.9999 704.9 4.0999 705C4.0999 699.9 4.0999 695.1 4.0999 690.2ZM4.0999 605.1C4.0999 600.2 4.0999 595.4 4.0999 590.5C3.9999 590.6 3.8999 590.6 3.8999 590.7C2.8999 591.7 1.9999 592.6 0.999902 593.6C0.899902 593.7 0.799902 593.9 0.799902 594.1C0.799902 596.6 0.799902 599.1 0.799902 601.5C0.799902 601.7 0.899902 602 1.0999 602.1C1.8999 603 2.7999 603.8 3.6999 604.7C3.7999 604.8 3.8999 604.9 4.0999 605.1ZM4.0999 490.7C3.9999 490.7 3.8999 490.8 3.8999 490.8C2.8999 491.8 1.8999 492.8 0.999902 493.7C0.899902 493.8 0.799902 494 0.799902 494.2C0.799902 496.7 0.799902 499.1 0.799902 501.6C0.799902 501.8 0.899902 502.1 1.0999 502.3C1.9999 503.2 2.8999 504.1 3.7999 505C3.8999 505.1 3.9999 505.2 4.0999 505.2C4.0999 500.4 4.0999 495.6 4.0999 490.7ZM4.0999 804.6C4.0999 799.7 4.0999 794.9 4.0999 790C3.9999 790.1 3.8999 790.1 3.8999 790.2C2.8999 791.2 1.9999 792.1 0.999902 793.1C0.899902 793.2 0.799902 793.4 0.799902 793.6C0.799902 796.1 0.799902 798.6 0.799902 801C0.799902 801.2 0.899902 801.5 1.0999 801.6C1.8999 802.5 2.7999 803.3 3.6999 804.2C3.7999 804.3 3.8999 804.4 4.0999 804.6Z" fill="#FBA410"/>
</svg>
