<svg width="98" height="13" viewBox="0 0 98 13" fill="none" xmlns="http://www.w3.org/2000/svg">
<g clip-path="url(#clip0_5_12)">
<path d="M39.7841 6.40948L34.9758 1.6012L30.1676 6.40948L34.9758 11.2178L39.7841 6.40948Z" stroke="#FBA410" stroke-width="0.75" stroke-miterlimit="10"/>
<path d="M66.8928 6.38799L62.0845 1.57971L57.2762 6.38799L62.0845 11.1963L66.8928 6.38799Z" stroke="#FBA410" stroke-width="0.75" stroke-miterlimit="10"/>
<path d="M48.6 12.1L39.8 6.39998L48.6 0.599976L57.3 6.39998L48.6 12.1Z" stroke="#FBA410" stroke-width="0.75" stroke-miterlimit="10"/>
<path d="M3.20001 6.40002H30.2" stroke="#FBA410" stroke-width="0.75" stroke-miterlimit="10"/>
<path d="M2.59998 8.90002C3.98069 8.90002 5.09998 7.78074 5.09998 6.40002C5.09998 5.01931 3.98069 3.90002 2.59998 3.90002C1.21926 3.90002 0.0999756 5.01931 0.0999756 6.40002C0.0999756 7.78074 1.21926 8.90002 2.59998 8.90002Z" fill="#FBA410"/>
<path d="M93.9 6.40002H66.9" stroke="#FBA410" stroke-width="0.75" stroke-miterlimit="10"/>
<path d="M94.4 8.90002C95.7807 8.90002 96.9 7.78074 96.9 6.40002C96.9 5.01931 95.7807 3.90002 94.4 3.90002C93.0193 3.90002 91.9 5.01931 91.9 6.40002C91.9 7.78074 93.0193 8.90002 94.4 8.90002Z" fill="#FBA410"/>
</g>
<defs>
<clipPath id="clip0_5_12">
<rect width="97.1" height="12.7" fill="white"/>
</clipPath>
</defs>
</svg>
